<svg width="126" height="37" viewBox="0 0 126 37" fill="none" xmlns="http://www.w3.org/2000/svg">
<path d="M106.524 19.9542C106.525 20.1644 106.549 20.4237 106.675 20.5968C106.925 20.9439 107.644 20.9659 108.021 20.9659H111.085C111.916 20.9659 112.472 20.7975 112.472 19.8898V19.6328C112.088 19.7575 111.623 19.8138 111.075 19.8138H108.021C106.042 19.8138 105.058 19.1274 105.058 17.0514V14.6715H106.524V17.3323C106.524 17.5468 106.544 17.8196 106.675 17.9999C106.924 18.347 107.644 18.369 108.021 18.369H111.085C111.916 18.369 112.472 18.2006 112.472 17.2929V14.6716H113.937V19.6288C113.937 21.6793 113.054 22.4107 111.075 22.4107H108.021C106.143 22.4107 105.16 21.7921 105.065 19.9543L106.524 19.9542Z" fill="black"/>
<path d="M65.8226 18.5365C65.8226 18.9139 65.8009 19.6364 65.4528 19.8872C65.2722 20.0171 64.9991 20.0389 64.7839 20.0389H61.8448V16.1828H64.7435C65.6542 16.1828 65.8227 16.7411 65.8227 17.5739L65.8226 18.5365ZM60.3748 20.0388H57.4357C57.2205 20.0388 56.9474 20.0175 56.7668 19.8872C56.4184 19.6364 56.397 18.9145 56.397 18.5365V17.5738C56.397 16.7404 56.5651 16.1827 57.4762 16.1827H60.3748L60.3748 20.0388ZM66.2352 15.0805C65.8082 14.8328 65.2343 14.7131 64.4823 14.7131H57.7374C56.6662 14.7131 55.9561 14.9562 55.5196 15.4678C55.1182 15.938 54.947 16.6339 54.947 17.5844V18.5365C54.947 19.5022 55.1122 20.2299 55.5196 20.7248C55.9493 21.247 56.6491 21.5092 57.718 21.5092H60.3748V22.4814H61.8449V21.5092H64.5017C65.2492 21.5092 65.8145 21.3799 66.2353 21.1249C66.9871 20.6696 67.2727 19.8089 67.2727 18.5366V17.5845C67.2727 16.3253 66.9755 15.5099 66.2352 15.0805Z" fill="black"/>
<path d="M84.4091 14.6716H85.8792V22.4106H84.4091V19.2761H78.8846V22.4106H77.4144V14.6716H78.8846V17.8057H84.4091V14.6716Z" fill="black"/>
<path d="M52.7496 14.7425H54.2198V22.4815H52.7496V19.347H47.2252V22.4815H45.7548V14.7425H47.2252V17.8767H52.7496V14.7425Z" fill="black"/>
<path d="M43.4893 16.8457V22.4817H44.9596V14.7426H43.3685L37.9648 21.0294V14.7426H36.4943V22.4817H38.6504L43.4893 16.8457Z" fill="black"/>
<path d="M93.6094 16.7745V22.4104H95.0795V14.6714H93.4887L88.085 20.9582V14.6714H86.6148V22.4104H88.7705L93.6094 16.7745Z" fill="black"/>
<path d="M75.2088 16.7745V22.4104H76.6788V14.6714H75.0881L69.6843 20.9582V14.6714H68.214V22.4104H70.37L75.2088 16.7745Z" fill="black"/>
<path d="M101.007 16.1221V22.4106H99.5373V16.1221H96.1406V14.6716H104.424V16.1221H101.007Z" fill="black"/>
<path d="M123.432 14.6716L120.117 20.2803L116.782 14.6716H114.646V22.4106H116.116V16.2751L119.712 22.4106H120.512L124.1 16.2917V22.4106H125.57V14.6716H123.432Z" fill="black"/>
<path d="M18.4746 8.28342C24.1863 8.28342 28.8189 12.9159 28.8189 18.6276C28.8189 18.9248 28.8056 19.2186 28.781 19.5095H26.5C26.5315 19.2196 26.5483 18.9258 26.5483 18.6276C26.5483 14.1695 22.9328 10.5539 18.4745 10.5539C15.4345 10.5539 12.7872 12.2352 11.4102 14.7183H24.9565C25.4116 15.5105 25.7531 16.3388 25.9146 17.2415H8.22313C8.90091 12.1846 13.2331 8.28342 18.4746 8.28342ZM18.4746 26.7013C21.3035 26.7013 23.7928 25.2448 25.2345 23.0414H27.8311C26.1748 26.5461 22.6074 28.9719 18.4745 28.9719C13.233 28.9719 8.90086 25.0701 8.22313 20.0138L33.1569 20.0141V17.2415H29.2327C29.1232 16.3805 28.9129 15.5264 28.5944 14.7182H35.7037V14.6094C35.4681 13.6006 35.1444 12.6258 34.744 11.6916C32.8807 7.34373 29.3222 3.89661 24.9002 2.17683C22.9166 1.40564 20.7611 0.979248 18.5055 0.979248C16.251 0.979248 14.0976 1.4067 12.115 2.17683C9.10516 3.34683 6.49637 5.31666 4.54825 7.82705C2.22907 10.8158 0.844559 14.5656 0.844559 18.6401C0.844559 22.715 2.22907 26.4648 4.54825 29.4535C7.08131 32.7183 10.7305 35.0734 14.9261 35.9378C16.0822 36.176 17.2792 36.3017 18.5055 36.3017C19.7268 36.3017 20.9181 36.174 22.0697 35.9378C27.7869 34.7652 32.4975 30.8308 34.744 25.5882C35.1445 24.6542 35.4682 23.6793 35.7037 22.6706V22.5369H11.4106C12.7878 25.0197 15.4348 26.7013 18.4746 26.7013Z" fill="#EA1F1A"/>
<path d="M79.346 24.4445V24.8588H78.0602V26.5249H77.5628V24.4445H79.346Z" fill="#EA1F1A"/>
<path d="M80.7666 25.4968H81.5967C81.6789 25.4968 81.7444 25.4856 81.7921 25.4629C81.8388 25.4405 81.872 25.406 81.8915 25.3592C81.9109 25.3129 81.9208 25.2503 81.9208 25.1733C81.9208 25.0638 81.8974 24.9834 81.8513 24.9335C81.8059 24.8828 81.7207 24.8575 81.5967 24.8575H80.7666V25.4968ZM80.2688 26.5249V24.4446H81.6868C81.8211 24.4446 81.9336 24.458 82.0247 24.4847C82.1159 24.5114 82.1905 24.5534 82.2485 24.6104C82.3061 24.6673 82.3492 24.7422 82.3765 24.8337C82.4041 24.9259 82.4179 25.0387 82.4179 25.1733C82.4169 25.349 82.3919 25.4905 82.3423 25.5987C82.2929 25.707 82.2149 25.7859 82.1083 25.8353C82.0021 25.8853 81.8632 25.9103 81.6928 25.9103H80.7666V26.5249L80.2688 26.5249Z" fill="#EA1F1A"/>
<path d="M85.0799 24.4445H85.6702L84.7026 26.0087C84.6233 26.1331 84.5579 26.2272 84.5075 26.2916C84.4565 26.3561 84.4059 26.4051 84.3559 26.4387C84.3061 26.4729 84.2509 26.4955 84.1901 26.5078C84.1288 26.5189 84.0482 26.5248 83.9472 26.5248H83.7525V26.132H83.8515C84.043 26.132 84.1391 26.0898 84.1391 26.0063C84.1391 25.9806 84.1272 25.9487 84.1032 25.9102L83.1409 24.4445H83.7288L84.4237 25.6171L85.0799 24.4445Z" fill="#EA1F1A"/>
<path d="M86.5155 26.525V24.4446H88.7965V26.525H88.2988V24.8575H87.0127V26.525H86.5155Z" fill="#EA1F1A"/>
<path d="M89.7168 26.525V24.4446H91.9978V26.525H91.5003V24.8575H90.2146V26.525H89.7168Z" fill="#EA1F1A"/>
<path d="M93.8355 25.608H94.6656L94.2698 24.8345H94.2467L93.8355 25.608ZM93.365 26.525H92.7833L93.8861 24.4446H94.6241L95.7177 26.525H95.1334L94.8662 26.0008H93.6344L93.365 26.525Z" fill="#EA1F1A"/>
<path d="M98.1539 26.525V24.4446H98.649V25.2207H98.9426L99.851 24.4446H100.597L99.3715 25.4195L100.646 26.525H99.9132L98.9518 25.6343H98.649V26.525H98.1539Z" fill="#EA1F1A"/>
<path d="M101.967 25.7635C101.968 25.8553 101.98 25.9261 102.003 25.976C102.025 26.0258 102.064 26.0609 102.119 26.0811C102.174 26.1014 102.253 26.1113 102.357 26.1113H103.016C103.125 26.1113 103.206 26.1021 103.261 26.0824C103.315 26.0629 103.353 26.0281 103.374 25.9791C103.395 25.93 103.405 25.8574 103.405 25.7606V25.2296C103.405 25.1276 103.392 25.0503 103.368 24.998C103.342 24.945 103.303 24.9088 103.246 24.8884C103.19 24.8681 103.111 24.8578 103.007 24.8578H102.365C102.26 24.8578 102.179 24.8687 102.123 24.89C102.068 24.9114 102.028 24.948 102.005 25.0009C101.982 25.0535 101.969 25.1306 101.967 25.2325V25.7635ZM103.903 25.8141C103.903 25.949 103.891 26.0602 103.867 26.1491C103.842 26.2372 103.802 26.309 103.745 26.3645C103.689 26.4198 103.612 26.4607 103.515 26.4863C103.417 26.512 103.296 26.5248 103.151 26.5248H102.237C102.097 26.5248 101.979 26.5116 101.882 26.4847C101.785 26.458 101.706 26.4159 101.645 26.3587C101.583 26.3011 101.539 26.2281 101.511 26.1393C101.483 26.0504 101.469 25.9425 101.469 25.8141V25.1821C101.469 25.0373 101.482 24.9186 101.51 24.8245C101.537 24.7307 101.581 24.656 101.64 24.6001C101.7 24.5441 101.778 24.504 101.873 24.4804C101.969 24.4563 102.09 24.4445 102.237 24.4445H103.151C103.33 24.4445 103.474 24.4659 103.583 24.5083C103.691 24.5511 103.771 24.6264 103.824 24.7334C103.877 24.8409 103.903 24.9903 103.903 25.1822L103.903 25.8141Z" fill="#EA1F1A"/>
<path d="M108.132 26.525H107.635V24.8585H107.569L106.855 26.525H106.148L105.435 24.8585H105.369V26.525H104.872V24.4446H105.797L106.487 26.1113H106.517L107.206 24.4446H108.132V26.525Z" fill="#EA1F1A"/>
<path d="M109.077 26.525V24.4446H111.358V26.525H110.86V24.8575H109.574V26.525H109.077Z" fill="#EA1F1A"/>
<path d="M113.195 25.608H114.026L113.63 24.8345H113.606L113.195 25.608ZM112.725 26.525H112.144L113.247 24.4446H113.984L115.078 26.525H114.493L114.227 26.0008H112.995L112.725 26.525Z" fill="#EA1F1A"/>
<path d="M115.836 26.525V24.4446H116.334V25.2421H117.617V24.4446H118.117V26.525H117.617V25.6557H116.334V26.525H115.836Z" fill="#EA1F1A"/>
<path d="M121.25 26.525V24.8585H121.181L119.931 26.525H119.076V24.4446H119.574V26.1113H119.643L120.911 24.4446H121.748V26.525H121.25Z" fill="#EA1F1A"/>
<path d="M124.712 23.8665C124.712 23.9741 124.693 24.0583 124.656 24.1182C124.62 24.1781 124.55 24.2222 124.447 24.2498C124.345 24.2777 124.195 24.2915 123.998 24.2915C123.8 24.2915 123.651 24.2777 123.549 24.2498C123.447 24.2222 123.377 24.1781 123.341 24.1182C123.304 24.0583 123.285 23.9741 123.285 23.8665V23.8392H123.69V23.8695C123.69 23.9241 123.699 23.9636 123.718 23.9889C123.736 24.0142 123.766 24.0304 123.807 24.0379C123.847 24.0452 123.911 24.0491 123.998 24.0491C124.085 24.0491 124.149 24.0452 124.19 24.0379C124.231 24.0304 124.26 24.0143 124.279 23.9889C124.297 23.9636 124.306 23.9241 124.306 23.8695V23.8392H124.712L124.712 23.8665ZM124.919 26.525V24.8585H124.85L123.6 26.525H122.745V24.4446H123.243V26.1113H123.312L124.58 24.4446H125.416V26.525H124.919Z" fill="#EA1F1A"/>
</svg>
