<svg width="97" height="37" viewBox="0 0 97 37" fill="none" xmlns="http://www.w3.org/2000/svg">
<path d="M50.2529 26.9897H49.6718V22.4711H51.0009C51.2345 22.4685 51.4675 22.4954 51.6943 22.5514C51.8856 22.5991 52.0649 22.6861 52.2208 22.8066C52.3675 22.923 52.4829 23.0742 52.5563 23.2464C52.6395 23.4467 52.6794 23.6622 52.6735 23.8789C52.686 24.081 52.6513 24.2832 52.5722 24.4696C52.4931 24.656 52.3717 24.8214 52.2176 24.9528C51.9148 25.1999 51.4921 25.3235 50.9495 25.3235H50.2529V26.9897ZM50.2529 24.7826H50.9495C51.2408 24.8023 51.5303 24.725 51.773 24.5627C51.8693 24.4809 51.945 24.3775 51.9938 24.2609C52.0426 24.1443 52.0632 24.0178 52.0539 23.8917C52.0651 23.7652 52.0453 23.6379 51.9964 23.5208C51.9475 23.4036 51.8708 23.3001 51.773 23.2192C51.5266 23.0666 51.2387 22.9948 50.9495 23.0137H50.2529V24.7826Z" fill="#0268B2"/>
<path d="M55.9464 27.054C55.6554 27.0588 55.3665 27.0042 55.0973 26.8934C54.8515 26.7891 54.6321 26.6312 54.4552 26.4311C54.2688 26.2184 54.1289 25.9691 54.0443 25.6992C53.9468 25.3876 53.8991 25.0625 53.903 24.7361C53.8986 24.4091 53.9485 24.0836 54.0507 23.773C54.1395 23.5045 54.2814 23.2566 54.4681 23.0442C54.645 22.8443 54.8644 22.6863 55.1101 22.5819C55.3691 22.4726 55.6478 22.418 55.9288 22.4214C56.2334 22.4148 56.5359 22.4728 56.8165 22.5915C57.0639 22.7019 57.2833 22.8665 57.4585 23.0731C57.6389 23.2889 57.7737 23.539 57.855 23.8083C57.9474 24.1126 57.9928 24.4293 57.9898 24.7473C57.9941 25.0911 57.9398 25.433 57.8293 25.7586C57.7386 26.0273 57.5932 26.2743 57.4023 26.4841C57.2242 26.6772 57.0047 26.8275 56.7603 26.9239C56.4995 27.0178 56.2235 27.0619 55.9464 27.054ZM56.0042 26.5114C56.1948 26.52 56.3847 26.484 56.5589 26.4063C56.7331 26.3285 56.8867 26.2112 57.0075 26.0636C57.2515 25.765 57.3718 25.3204 57.3718 24.7297C57.3771 24.4587 57.3436 24.1885 57.2723 23.9271C57.2166 23.7238 57.1187 23.5346 56.985 23.3717C56.8624 23.2281 56.7056 23.1176 56.5291 23.0506C56.3362 22.9787 56.1315 22.9433 55.9256 22.9463C55.7353 22.9448 55.5468 22.9825 55.3718 23.057C55.199 23.1298 55.0461 23.2426 54.9256 23.3861C54.7911 23.55 54.6902 23.7387 54.6286 23.9415C54.5508 24.1963 54.514 24.4617 54.5194 24.728C54.5148 24.9925 54.5505 25.2561 54.6254 25.5098C54.6865 25.7144 54.7887 25.9045 54.9256 26.0684C55.0533 26.2146 55.214 26.3285 55.3943 26.4006C55.5885 26.4768 55.7956 26.5145 56.0042 26.5114Z" fill="#0268B2"/>
<path d="M62.5887 26.8661C62.4489 26.9319 62.301 26.9789 62.1489 27.0058C61.9678 27.0392 61.784 27.0553 61.5999 27.0539C61.2776 27.0579 60.9573 27.0035 60.6544 26.8934C60.3887 26.7946 60.1477 26.639 59.9482 26.4376C59.7507 26.2342 59.5987 25.9913 59.5019 25.7249C59.393 25.4239 59.3387 25.1059 59.3414 24.7858C59.3377 24.439 59.392 24.0939 59.5019 23.7649C59.5949 23.4863 59.7471 23.2311 59.9482 23.0169C60.1438 22.813 60.3831 22.6561 60.648 22.5578C60.9403 22.4496 61.2497 22.3952 61.5614 22.3973C61.7725 22.3926 61.9835 22.4109 62.1906 22.4519C62.3283 22.481 62.4635 22.5207 62.5951 22.5707L62.4843 23.0811C62.3446 23.0299 62.1999 22.9933 62.0526 22.972C61.9092 22.9497 61.7643 22.9384 61.6192 22.9383C61.0841 22.9383 60.6742 23.0891 60.3896 23.3909C60.1049 23.6927 59.9658 24.1389 59.9722 24.7296C59.9687 24.9855 60.0089 25.2401 60.091 25.4825C60.1632 25.6914 60.2786 25.8829 60.4297 26.0443C60.5804 26.1987 60.7635 26.3177 60.9659 26.3926C61.1958 26.4757 61.4389 26.5159 61.6834 26.5114C61.8271 26.5112 61.9705 26.4983 62.1119 26.4729C62.2451 26.4512 62.3744 26.4101 62.4956 26.3509L62.5887 26.8661Z" fill="#0268B2"/>
<path d="M66.6482 25.7826H64.722L64.2822 26.9897H63.6947L65.4186 22.4711H65.9997L67.69 26.9897H67.0832L66.6482 25.7826ZM64.905 25.2529H66.4604L65.706 23.1293H65.6803L64.905 25.2529Z" fill="#0268B2"/>
<path d="M70.056 26.9897H69.4749V23.0137H68.1394V22.4711H71.3931V23.0137H70.056V26.9897Z" fill="#0268B2"/>
<path d="M74.4077 27.0539C74.1166 27.0587 73.8277 27.0041 73.5585 26.8934C73.3127 26.7891 73.0933 26.6312 72.9164 26.4311C72.7306 26.2183 72.5911 25.969 72.5071 25.6992C72.4091 25.3877 72.3608 25.0626 72.3643 24.7361C72.3603 24.409 72.4108 24.0835 72.5135 23.773C72.6017 23.5046 72.7431 23.2567 72.9293 23.0442C73.1065 22.8446 73.3258 22.6867 73.5714 22.5819C73.8309 22.4728 74.1101 22.4181 74.3916 22.4214C74.6962 22.4151 74.9986 22.4731 75.2793 22.5915C75.5266 22.7021 75.746 22.8666 75.9213 23.0731C76.1022 23.2886 76.2371 23.5388 76.3178 23.8083C76.4115 24.1124 76.4576 24.4291 76.4543 24.7473C76.4593 25.0911 76.405 25.4332 76.2937 25.7586C76.2036 26.0272 76.0587 26.2742 75.8684 26.4841C75.6897 26.6766 75.4704 26.8269 75.2263 26.9239C74.9639 27.018 74.6863 27.0621 74.4077 27.0539ZM74.4654 26.5114C74.656 26.5203 74.846 26.4844 75.0203 26.4066C75.1945 26.3289 75.348 26.2114 75.4687 26.0635C75.7127 25.765 75.8347 25.3203 75.8347 24.7296C75.8402 24.4586 75.8061 24.1882 75.7335 23.9271C75.6784 23.7236 75.5805 23.5342 75.4462 23.3717C75.3244 23.228 75.1681 23.1175 74.9919 23.0506C74.7989 22.9788 74.5943 22.9434 74.3884 22.9463C74.1976 22.9447 74.0086 22.9824 73.833 23.057C73.6607 23.1298 73.5083 23.2426 73.3884 23.3861C73.2533 23.5496 73.1524 23.7384 73.0914 23.9415C73.013 24.1961 72.9756 24.4616 72.9806 24.728C72.976 24.9925 73.0117 25.2561 73.0866 25.5098C73.1483 25.7145 73.2509 25.9046 73.3884 26.0684C73.5152 26.2149 73.6754 26.3289 73.8555 26.4006C74.0498 26.4765 74.2569 26.5141 74.4654 26.5114Z" fill="#0268B2"/>
<path d="M82.4191 26.9897H81.8381L81.5603 23.4583L80.4175 26.9897H79.8107L78.6742 23.4712L78.3901 26.9897H77.809L78.1975 22.4711H78.9134L80.1333 26.3573L81.3212 22.4711H82.0307L82.4191 26.9897Z" fill="#0268B2"/>
<path d="M22.3773 21.187C21.8637 21.7526 21.194 22.1534 20.4527 22.3386C19.7115 22.5238 18.932 22.4852 18.2127 22.2277C17.4934 21.9701 16.8666 21.5052 16.4113 20.8916C15.9561 20.278 15.693 19.5433 15.6551 18.7802C15.6173 18.0171 15.8064 17.2599 16.1986 16.6043C16.5908 15.9486 17.1686 15.4239 17.8589 15.0964C18.5491 14.7689 19.321 14.6534 20.0769 14.7643C20.8328 14.8753 21.5389 15.2077 22.106 15.7197C22.4849 16.0596 22.7927 16.4711 23.0117 16.9306C23.2306 17.3901 23.3563 17.8884 23.3815 18.3968C23.4068 18.9052 23.331 19.4135 23.1586 19.8924C22.9862 20.3713 22.7207 20.8113 22.3773 21.187Z" fill="#0268B2"/>
<path d="M10.5728 18.723C10.5728 18.723 12.7237 17.6283 13.9693 12.7598C15.2149 7.89127 19.8555 5.62957 19.8555 5.62957C19.8555 5.62957 9.89055 -4.25675 2.34619 11.2525C2.34619 11.2525 8.49725 12.458 10.5711 18.723" fill="#0268B2"/>
<path d="M11.4781 1.81887C11.4781 1.81887 19.1573 0.308393 23.7031 9.92986C23.7031 9.92986 29.0002 11.649 33.6649 6.71949C33.6649 6.71949 25.875 -3.94052 11.4781 1.81405" fill="#0268B2"/>
<path d="M24.0049 26.0122C24.0049 26.0122 21.9808 24.6975 17.1444 26.0539C12.308 27.4103 8.02372 24.5258 8.02372 24.5258C8.02372 24.5258 4.44738 38.096 21.6517 36.8729C21.6517 36.8729 19.6196 30.9433 24.0049 26.0122Z" fill="#0268B2"/>
<path d="M8.9146 33.6849C8.9146 33.6849 3.76678 27.7907 9.82313 19.0409C9.82313 19.0409 8.65777 13.5913 2.06368 12.0198C2.06368 12.0198 -3.26874 24.0988 8.9146 33.6898" fill="#0268B2"/>
<path d="M23.6245 10.7934C23.6245 10.7934 23.4977 13.2012 27.0917 16.715C30.6857 20.2287 30.3309 25.3829 30.3309 25.3829C30.3309 25.3829 43.8707 21.691 34.2059 7.4049C34.2059 7.4049 30.087 12.1322 23.6245 10.7983" fill="#0268B2"/>
<path d="M37.8207 20.0184C37.8207 20.0184 35.2926 27.4231 24.6855 26.5547C24.6855 26.5547 20.5506 30.2884 22.488 36.7878C22.488 36.7878 35.6152 35.3624 37.8207 20.0184Z" fill="#0268B2"/>
<path d="M50.3909 16.4211H49.6654V10.7788H52.6558V11.4562H50.3909V16.4211Z" fill="#343434"/>
<path d="M55.0732 16.4211H54.3541V10.7788H56.0074C56.2995 10.7752 56.5908 10.8092 56.8742 10.88C57.113 10.9403 57.3365 11.0496 57.5307 11.201C57.7135 11.3467 57.8574 11.5353 57.9497 11.75C58.0524 12.0003 58.1021 12.2692 58.0958 12.5397C58.0958 13.1256 57.9064 13.5719 57.5275 13.8817C57.1487 14.1915 56.6206 14.3455 55.9432 14.3455H55.0732V16.4211ZM55.0732 13.665H55.9432C56.3943 13.665 56.7458 13.5735 56.9705 13.3905C57.0913 13.2887 57.1862 13.1596 57.2473 13.0139C57.3085 12.8682 57.3341 12.7101 57.3221 12.5526C57.3221 12.1662 57.2049 11.8869 56.9705 11.7147C56.7378 11.5429 56.3943 11.4562 55.9432 11.4562H55.0732V13.665Z" fill="#343434"/>
<path d="M64.2356 16.4211H63.5116V11.8752L60.7748 16.4211H59.953V10.7788H60.6785V15.3247L63.4186 10.7788H64.2404L64.2356 16.4211Z" fill="#343434"/>
<path d="M70.796 16.4211H70.0704V13.8255H67.218V16.4211H66.4925V10.7788H67.218V13.1657H70.0704V10.7788H70.796V16.4211Z" fill="#343434"/>
<path d="M76.0995 14.9138H73.6917L73.1347 16.4211H72.4011L74.5537 10.7788H75.2792L77.3901 16.4211H76.6324L76.0995 14.9138ZM73.9229 14.2524H75.8635L74.9213 11.6007H74.8892L73.9229 14.2524Z" fill="#343434"/>
<path d="M80.4351 16.4211H79.716V11.4562H78.0418V10.7788H82.1045V11.4562H80.4351V16.4211Z" fill="#343434"/>
<path d="M85.9489 16.5013C85.5853 16.5067 85.2244 16.4384 84.8879 16.3007C84.5813 16.1699 84.3073 15.9731 84.0853 15.7244C83.8535 15.4579 83.6792 15.1464 83.5732 14.8095C83.4511 14.4184 83.3915 14.0104 83.3967 13.6008C83.3903 13.1888 83.4527 12.7787 83.5813 12.3872C83.6918 12.052 83.8686 11.7425 84.1013 11.4771C84.3228 11.2279 84.597 11.031 84.9039 10.9008C85.2271 10.7636 85.5753 10.6947 85.9264 10.6986C86.307 10.6913 86.6849 10.764 87.0356 10.9121C87.3445 11.0485 87.6187 11.2526 87.8382 11.5092C88.0629 11.7793 88.2315 12.0914 88.3342 12.4274C88.4472 12.808 88.5013 13.2037 88.4947 13.6008C88.5027 14.0287 88.4376 14.4548 88.3021 14.8608C88.1889 15.1967 88.0075 15.5055 87.7692 15.7678C87.5463 16.0088 87.272 16.1964 86.9666 16.3167C86.6421 16.442 86.2967 16.5047 85.9489 16.5013ZM86.0211 15.8239C86.2591 15.835 86.4963 15.79 86.7138 15.6927C86.9312 15.5954 87.1228 15.4485 87.2732 15.2637C87.5782 14.8913 87.7301 14.337 87.729 13.6008C87.7355 13.2631 87.6933 12.9263 87.6038 12.6007C87.5341 12.3472 87.4122 12.111 87.2459 11.9073C87.0923 11.73 86.897 11.5937 86.6777 11.5108C86.4361 11.4223 86.1804 11.3788 85.9232 11.3824C85.6857 11.3803 85.4503 11.4267 85.2314 11.5188C85.0163 11.6106 84.8256 11.7513 84.6744 11.9298C84.5069 12.1346 84.3809 12.3701 84.3036 12.6232C84.2066 12.942 84.1606 13.274 84.1671 13.6072C84.1616 13.9369 84.2066 14.2654 84.3004 14.5815C84.3758 14.837 84.5032 15.0741 84.6744 15.2782C84.8339 15.4582 85.0343 15.5975 85.2587 15.6843C85.5015 15.7793 85.7604 15.8267 86.0211 15.8239Z" fill="#343434"/>
<path d="M96.031 16.4211H95.3055L94.9652 12.0132L93.5382 16.4211H92.7806L91.3616 12.0293L91.0084 16.4211H90.2829L90.7645 10.7788H91.6505L93.1738 15.6313L94.665 10.7788H95.5511L96.031 16.4211Z" fill="#343434"/>
<path d="M43.9541 3.03223H43.5673V34.2001H43.9541V3.03223Z" fill="#343434"/>
</svg>
