<svg width="134" height="30" viewBox="0 0 134 30" fill="none" xmlns="http://www.w3.org/2000/svg">
<path d="M0.31604 15.005C0.31604 22.8587 6.58553 29.2326 14.3104 29.2326V0.777344C6.58553 0.777344 0.31604 7.15133 0.31604 15.005Z" fill="#008DD2"/>
<path d="M15.1128 19.6145L27.6331 29.2324V10.395L15.1128 0.7771V19.6145Z" fill="#25629B"/>
<path d="M28.3048 0.7771V29.2324C36.0297 29.2324 42.2992 22.8584 42.2992 15.0048C42.2992 7.15109 36.0297 0.7771 28.3048 0.7771Z" fill="#008DD2"/>
<path d="M53.6627 13.7526V10.2242H50.6959V19.7282H53.7187V16.3705H56.2936V19.7282H59.3164V10.2242H56.2936V13.7526H53.6627ZM84.1145 13.7526H81.5395V10.2242H78.5167V19.7282H81.5395V16.3705H84.1145V19.7282H87.1373V10.2242H84.1145V13.7526ZM129.96 13.0128H128.505V10.2242H125.482V19.7282H129.904C131.863 19.7282 133.431 18.6469 133.431 16.712V16.0291C133.487 14.0941 131.863 13.0128 129.96 13.0128ZM129.624 17.3949H128.505V15.3461H129.512C130.352 15.3461 130.576 15.9721 130.576 16.3705C130.576 17.2242 129.848 17.3949 129.624 17.3949ZM110.592 16.1429H113.951V13.8665H110.592V12.7282H114.286V10.2811H107.569V19.7852H114.51V17.2811H110.592V16.1429ZM106.897 10.2242H103.651L102.083 13.8095H101.356V10.2242H98.3328V19.7282H101.356V16.3705H102.083L103.707 19.7282H107.177L104.658 14.9478L106.897 10.2242ZM65.25 10.1104H63.7946C61.8354 10.1104 60.268 11.5331 60.268 13.6957V16.3705C60.268 18.59 61.8354 19.9559 63.7946 19.9559H65.25C67.2092 19.9559 68.7766 18.5331 68.7766 16.3705V13.6957C68.8326 11.3624 67.2092 10.1104 65.25 10.1104ZM65.8098 16.5413C65.8098 17.1673 65.306 17.6795 64.6903 17.6795H64.4104C63.7946 17.6795 63.2908 17.1673 63.2908 16.5413V13.4681C63.2908 12.8421 63.7946 12.3299 64.4104 12.3299H64.6903C65.306 12.3299 65.8098 12.8421 65.8098 13.4681V16.5413ZM116.805 15.2892C116.805 16.712 116.414 16.9396 115.91 17.1673C115.686 17.2811 115.07 17.2811 115.07 17.2811V19.7852H116.246C118.765 19.7852 119.716 18.3055 119.716 14.9478V12.7852H121.396V19.7852H124.418V10.2242H116.861V15.2892H116.805ZM74.2624 10.2242H69.8402V19.7282H72.863V17.3949H74.3184C76.2776 17.3949 77.845 16.3136 77.845 14.3786V13.2973C77.789 11.3055 76.2216 10.2242 74.2624 10.2242ZM74.8782 14.0941C74.8782 14.4356 74.7102 15.1185 73.8146 15.1185H72.807V12.6144H73.9266C74.2064 12.6144 74.8222 12.8421 74.8222 13.5819V14.0941H74.8782ZM91.2796 15.0616V10.2811H88.4247V19.7852H91.0557L94.1345 15.0047V19.7852H96.9893V10.2242H94.3584L91.2796 15.0616Z" fill="#524D47"/>
</svg>
