<svg width="97" height="47" viewBox="0 0 97 47" fill="none" xmlns="http://www.w3.org/2000/svg">
<path fill-rule="evenodd" clip-rule="evenodd" d="M65.1878 38.9756C65.5487 38.9756 65.6768 39.0552 65.6768 39.4658V41.6906C65.6768 42.0963 65.5487 42.1984 65.1878 42.1984H64.9363V38.9756H65.1878ZM91.0812 41.1282C91.4421 41.1282 91.5529 41.2178 91.5529 41.6136V42.4497C91.5529 42.8426 91.4421 42.9348 91.0812 42.9348H90.7203V41.1282H91.0812ZM62.6174 39.4805C62.6174 39.0774 62.7507 38.9756 63.1055 38.9756H63.3643V42.1984H63.1055C62.7507 42.1984 62.6174 42.1037 62.6174 41.698V39.4805ZM32.2644 46.1402H96.0311V35.5114H32.2644V46.1402ZM39.1883 37.2361H37.5704V39.9062H36.7388V37.2361H35.1221V44.1568H36.7388V41.1282H37.5704V44.1568H39.1883V37.2361ZM52.5918 37.231H48.7124V44.1619H52.5918V42.8478H50.3802V41.2178H52.359V39.9062H50.3802V38.5426H52.5918V37.231ZM67.2437 39.528C67.2437 38.1144 66.5556 37.7561 64.9363 37.7561V37.2361H63.3643V37.7561C61.7415 37.7561 61.048 38.1144 61.048 39.528V41.6906C61.048 43.0943 61.7711 43.4724 63.3643 43.4724V44.1568H64.9363V43.4724C66.5296 43.4724 67.2437 43.0943 67.2437 41.6906V39.528ZM79.6778 37.231H75.6067V38.5426H76.9196V44.1619H78.4567V38.5426H79.6778V37.231ZM93.1673 41.6607C93.1673 40.2769 92.5797 39.9062 90.9929 39.9062H90.7203V37.2361H89.1033V44.1568H90.7203C92.4776 44.1568 93.1673 43.8881 93.1673 42.3727V41.6607ZM27.9991 30.2008V41.1057C25.0891 44.1992 20.948 46.1402 16.3491 46.1402C7.5333 46.1402 0.380432 39.0202 0.380432 30.2407C0.380432 21.4659 7.5333 14.3462 16.3491 14.3462V26.2988C14.0552 26.2988 11.7601 27.1697 10.0102 28.9117C9.59211 29.3248 9.22607 29.7704 8.90883 30.2407C6.56008 33.7122 6.92484 38.4655 10.0102 41.5362C11.7601 43.2734 14.0552 44.1494 16.3491 44.1494C18.6317 44.1494 20.9172 43.2859 22.6658 41.5561C22.6745 41.5461 22.6835 41.5413 22.6931 41.5339V41.5288L22.7156 41.5115C24.4694 39.7669 24.4694 36.9325 22.7156 35.193C20.9618 33.4458 18.1228 33.4458 16.3703 35.193C16.359 35.1978 16.3542 35.2029 16.3491 35.2103V30.2008H27.9991ZM26.0128 8.69698C26.9761 12.9303 26.9584 15.5332 26.5404 18.5021C25.7823 23.8477 23.3539 27.9336 22.3024 29.3049C21.5802 28.3741 20.4754 26.4754 19.7385 24.7038C19.7385 24.7038 18.3443 21.3317 17.976 18.0466C17.6074 14.7593 17.7657 11.4197 18.8397 7.6592C19.8242 4.28007 21.7559 1.24377 22.285 0.455078C22.617 1.0149 25.0454 4.46175 26.0128 8.69698ZM22.285 28.2524C22.7779 27.3388 23.6243 25.3358 23.5495 22.79C23.4464 20.1919 22.5676 18.288 22.3024 17.8325C21.9999 18.288 20.9817 20.4705 20.9991 23.0214C21.0716 25.6517 21.8108 27.3591 22.285 28.2524ZM25.7338 15.8841C25.7637 14.2688 25.6079 11.524 24.819 8.65975C24.0276 5.7955 22.4928 3.07056 22.2664 2.71682C22.041 3.07056 20.826 5.28286 19.7532 8.74674C19.4707 9.78452 18.9618 12.0369 18.8735 14.2316C18.7701 16.8943 19.131 19.5348 19.2767 20.2814C19.2767 19.4006 19.2941 16.4638 19.8393 14.04C20.3855 11.611 21.4235 8.81639 22.2664 7.39566C23.1812 8.89118 24.3275 12.1188 24.7282 14.0551C25.1353 15.991 25.3466 18.4671 25.2596 20.2217C25.5036 19.2038 25.6966 17.499 25.7338 15.8841ZM92.047 14.264H96.0311V30.2034H92.9644V20.2066H92.8584L91.2803 30.2034H88.8307L87.2564 20.2066H87.1517V30.2034H84.0837V14.264H88.0617L90.0479 25.4652L92.047 14.264ZM70.1598 23.0288C70.4934 23.0288 70.7313 22.7351 70.7313 22.2324V17.0387C70.7313 16.5386 70.4934 16.2426 70.1598 16.2426H69.3535V23.0288H70.1598ZM66.2929 14.264H71.1035C73.2493 14.264 73.589 15.9961 73.589 17.1109V21.9339C73.589 23.0535 73.2493 24.7856 71.1035 24.7856H69.3535V30.2034H66.2929V14.264ZM56.9891 14.264H64.0761V30.2034H61.2185V16.2426H59.8445V30.2034H56.9891V14.264ZM50.9514 24.6216V27.6204C50.9514 28.0335 51.2529 28.1478 51.4308 28.1478C51.712 28.1478 51.9085 27.8964 51.9085 27.6204V23.9148C51.9085 23.4169 51.8238 22.8696 50.6839 22.8696H49.4394V21.1176H50.7276C51.6022 21.1176 51.9085 20.9061 51.9085 19.9354V16.7649C51.9085 16.4914 51.712 16.2426 51.4308 16.2426C51.2529 16.2426 50.9514 16.3569 50.9514 16.7649V19.363H47.8834V17.1109C47.8834 15.9961 48.0192 14.264 50.1599 14.264H52.7C54.8433 14.264 54.9756 15.9961 54.9756 17.1109V19.6641C54.9756 21.3914 53.8129 21.8665 52.893 21.8219V21.9833C54.9492 21.9339 54.9756 23.5761 54.9756 24.1462V27.3539C54.9756 28.4713 54.8433 30.2034 52.7 30.2034H50.1599C48.0192 30.2034 47.8834 28.4713 47.8834 27.3539V24.6216H50.9514ZM43.1711 24.2133L42.6458 16.2426H42.4766L41.9465 24.2133H43.1711ZM40.1542 14.264H44.9673L46.5653 30.2034H43.5683L43.2845 25.9653H41.8408L41.5509 30.2034H38.56L40.1542 14.264ZM32.2644 14.264H38.1082V16.2426H35.3263V30.2034H32.2644V14.264ZM79.9966 14.264C82.1421 14.264 82.2767 15.9961 82.2767 17.1109V27.3539C82.2767 28.4713 82.1421 30.2034 79.9966 30.2034H77.4623C75.3203 30.2034 75.1909 28.4713 75.1909 27.3539V17.1109C75.1909 15.9961 75.3203 14.264 77.4623 14.264H79.9966ZM78.7331 28.2325C79.1027 28.2325 79.41 27.9487 79.41 27.5979L79.409 27.578V16.8943V16.8471L79.4039 16.7973C79.3718 16.4863 79.0806 16.2375 78.728 16.2375C78.3771 16.2375 78.0958 16.4863 78.0547 16.7973V16.8471V16.8943V27.578L78.0499 27.5979C78.0499 27.9487 78.3559 28.2325 78.7331 28.2325Z" fill="#0079C2"/>
</svg>
