<svg width="105" height="37" viewBox="0 0 105 37" fill="none" xmlns="http://www.w3.org/2000/svg">
<path d="M9.80241 12.5528C5.97806 12.5432 4.06122 10.8474 4.05249 7.46455V3.94308L4.06515 3.9415L7.60999 3.94308C11.0011 3.94308 12.7016 5.84889 12.7091 9.66582C12.7091 10.6377 12.5957 11.4844 12.3732 12.2085C11.6422 12.4354 10.786 12.5502 9.80241 12.5528ZM7.60866 0.114014H0.239583V7.46455C0.239583 11.4455 1.67675 14.0897 4.54445 15.4007C5.95258 16.0445 7.70467 16.3682 9.80241 16.3682C12.0752 16.3682 13.942 15.9893 15.4059 15.2368C16.1574 13.7801 16.5345 11.9244 16.5345 9.66501C16.5345 7.54205 16.2031 5.77352 15.5396 4.35836C14.2172 1.52942 11.5748 0.114014 7.60866 0.114014Z" fill="black"/>
<path d="M27.1408 24.05C30.965 24.0578 32.8822 25.7536 32.8907 29.1375V32.6603H29.333C25.9407 32.6586 24.2413 30.7522 24.2315 26.9358C24.2345 25.9649 24.3477 25.1176 24.5702 24.3926C25.3 24.1673 26.1556 24.0508 27.1408 24.05ZM29.333 36.4871H36.7036V29.1375C36.7036 25.1556 35.2667 22.5112 32.3991 21.2004C30.9909 20.5582 29.237 20.2329 27.1408 20.2329C24.867 20.2329 23.0011 20.6126 21.5359 21.3643C20.7857 22.821 20.4072 24.6764 20.4072 26.9358C20.406 29.0599 20.7398 30.8273 21.4026 32.2435C22.726 35.0716 25.3688 36.4871 29.333 36.4871Z" fill="black"/>
<path d="M12.7091 26.948C12.6987 30.7643 11.0011 32.676 7.60866 32.6837H4.07559L4.07685 32.6714V29.135C4.07559 25.7518 5.98991 24.0577 9.81534 24.0474C10.7887 24.05 11.638 24.1628 12.3646 24.3848C12.59 25.1132 12.706 25.9667 12.7091 26.948ZM0.238342 29.135V36.487H7.60687C11.6007 36.487 14.2516 35.0517 15.5651 32.1924C16.2088 30.7868 16.5345 29.0407 16.5345 26.948C16.5345 24.679 16.1543 22.8184 15.4002 21.3591C13.9407 20.6083 12.0792 20.2319 9.81534 20.2319C7.68612 20.2319 5.91377 20.564 4.49429 21.2236C1.65945 22.543 0.238342 25.1806 0.238342 29.135Z" fill="black"/>
<path d="M54.377 6.32342H52.9805V13.0904H54.5225C55.7388 13.0904 56.8706 12.7961 56.8706 9.68324C56.8706 6.32342 55.4447 6.32342 54.377 6.32342ZM54.377 15.008H50.4862V4.40915H54.377C57.6926 4.40915 59.4491 5.78566 59.4491 9.66579C59.4491 13.5971 57.8241 15.008 54.377 15.008Z" fill="black"/>
<path d="M72.3042 15.008V7.06141L69.6286 15.008H66.9513L64.2916 7.06141V15.008H61.8954V4.40915H66.081L68.3794 11.6958L70.7598 4.40915H74.7848V15.008H72.3042Z" fill="black"/>
<path d="M24.2332 9.65404C24.2445 5.83763 25.9419 3.92707 29.3349 3.91836H32.8679L32.8669 3.9313V7.46704C32.8679 10.8494 30.952 12.5451 27.1278 12.5537C26.1543 12.5521 25.3055 12.4398 24.5783 12.218C24.3522 11.4889 24.2374 10.6361 24.2332 9.65404ZM36.7037 7.46704L36.7047 0.115723H29.3349C25.3428 0.115723 22.6918 1.54859 21.3779 4.40929C20.7342 5.81438 20.4088 7.56014 20.4088 9.65404C20.4088 11.922 20.7888 13.7835 21.5428 15.2438C23.0011 15.9929 24.8639 16.37 27.1278 16.37C29.2575 16.371 31.0299 16.0378 32.4492 15.3776C35.284 14.058 36.7037 11.4215 36.7037 7.46704Z" fill="#00ADEF"/>
<path d="M52.8162 33.0462C51.8967 33.0462 51.0264 32.8331 50.1234 32.5865L50.4186 31.9C51.2073 32.1952 51.9626 32.4386 52.833 32.4386C54.0654 32.4386 55.6239 31.9823 55.6239 30.1154C55.6239 28.5603 54.3266 28.0676 52.9641 27.5938C51.5525 27.0999 50.1234 26.5269 50.1234 24.692C50.1234 22.7452 51.6657 22.0245 53.621 22.0245C54.3434 22.0245 55.2137 22.1895 56.0841 22.4819L55.7893 23.1706C55.179 22.9074 54.5397 22.6286 53.5214 22.6286C52.0934 22.6286 50.9107 23.1198 50.9107 24.692C50.9107 25.9566 52.0289 26.414 53.261 26.8386C54.7689 27.3643 56.4104 27.9684 56.4104 30.0818C56.4104 32.3429 54.7689 33.0462 52.8162 33.0462Z" fill="#00ADEF"/>
<path d="M61.5323 25.6751C59.7449 25.6751 59.1364 27.1658 59.1364 29.0005C59.1364 30.8361 59.6142 32.4084 61.5323 32.4084C63.5187 32.4084 63.9144 30.8361 63.9144 29.0005C63.9144 27.1658 63.4384 25.6751 61.5323 25.6751ZM61.5323 32.9478C59.1364 32.9478 58.414 31.1795 58.414 29.0005C58.414 26.9359 59.1364 25.1347 61.5323 25.1347C63.9316 25.1347 64.6348 26.8558 64.6348 29.0005C64.6348 31.1795 63.9316 32.9478 61.5323 32.9478Z" fill="#00ADEF"/>
<path d="M66.6215 32.7849V22.0245H67.2963V32.7849H66.6215Z" fill="#00ADEF"/>
<path d="M74.4722 32.7849L74.2577 31.6078C73.9776 31.9649 73.469 32.9478 72.0084 32.9478C70.2172 32.9478 69.6602 31.7353 69.6602 30.0161V25.2989H70.3332V29.8861C70.3332 31.2427 70.5789 32.4084 72.1882 32.4084C73.2716 32.4084 73.9776 31.4075 74.2068 30.7369V25.2989H74.8827V31.1943C74.8827 31.818 74.9794 32.1616 75.0123 32.7849H74.4722Z" fill="#00ADEF"/>
<path d="M79.9544 33.4889C78.2778 33.1774 77.4401 32.3896 77.4401 30.9808V25.84H76.3086V25.2988H77.4401V23.4323H78.1148V25.2988H79.8222V25.84H78.1148V30.9808C78.1148 32.0452 78.6894 32.6192 80.1346 32.8657L79.9544 33.4889Z" fill="#00ADEF"/>
<path d="M81.5945 32.7849V25.2989H82.2678V32.7849H81.5945ZM81.5279 23.3018V22.1895H82.3166V23.3018H81.5279Z" fill="#00ADEF"/>
<path d="M87.3918 25.6751C85.6006 25.6751 84.9924 27.1658 84.9924 29.0005C84.9924 30.8361 85.4685 32.4084 87.3918 32.4084C89.3782 32.4084 89.7704 30.8361 89.7704 29.0005C89.7704 27.1658 89.2951 25.6751 87.3918 25.6751ZM87.3918 32.9478C84.9924 32.9478 84.2714 31.1795 84.2714 29.0005C84.2714 26.9359 84.9924 25.1347 87.3918 25.1347C89.7873 25.1347 90.4925 26.8558 90.4925 29.0005C90.4925 31.1795 89.7873 32.9478 87.3918 32.9478Z" fill="#00ADEF"/>
<path d="M97.1426 32.7848V28.198C97.1426 26.8386 96.8776 25.6752 95.2375 25.6752C94.1551 25.6752 93.384 26.6746 93.1519 27.3467V32.7848H92.4789V26.8878C92.4789 26.2662 92.3804 25.9212 92.3475 25.2988H92.8891L93.1039 26.4785C93.384 26.1179 93.99 25.1347 95.3353 25.1347C97.2075 25.1347 97.8174 26.3483 97.8174 28.0675V32.7848H97.1426Z" fill="#00ADEF"/>
<path d="M102.151 32.9478C101.278 32.9478 100.39 32.8168 99.7348 32.4893L99.9819 31.9C100.936 32.3084 101.278 32.4084 102.214 32.4084C103.25 32.4084 103.97 31.8664 103.97 30.8025C103.97 29.753 103.036 29.4749 102.019 29.1634C100.886 28.8216 99.72 28.4111 99.72 27.1658C99.72 25.6925 100.918 25.1347 102.445 25.1347C103.085 25.1347 103.659 25.3161 104.564 25.6276L104.317 26.2171C103.594 25.9055 103.201 25.6751 102.297 25.6751C101.31 25.6751 100.443 26.0358 100.443 27.1174C100.443 27.9516 101.246 28.2149 102.166 28.4928C103.365 28.8536 104.694 29.197 104.694 30.7859C104.694 32.21 103.562 32.9478 102.151 32.9478Z" fill="#00ADEF"/>
</svg>
