<svg width="131" height="38" viewBox="0 0 131 38" fill="none" xmlns="http://www.w3.org/2000/svg">
<path d="M16.9666 37.4039C16.9354 37.3896 16.7048 37.2538 16.4578 37.102C16.2108 36.9485 15.8828 36.7574 15.731 36.6761C15.5797 36.5942 15.3021 36.4351 15.1174 36.3253C14.7911 36.1326 14.2438 35.8114 13.3373 35.2849C12.8569 35.0057 12.7538 34.9466 12.4258 34.7635C12.0926 34.5782 11.7408 34.3724 11.3012 34.1131C11.0921 33.9892 10.7018 33.7646 10.4344 33.6122C10.1664 33.461 9.89841 33.3041 9.84119 33.2649C9.78283 33.2239 9.67689 33.162 9.60721 33.1273C9.53695 33.0915 9.24122 32.9249 8.95115 32.7537C7.71496 32.0305 7.29571 31.7895 6.92123 31.586C6.70255 31.4671 6.4799 31.3273 6.42324 31.2761L6.32183 31.1834V18.7721L6.41757 18.6885C6.47083 18.6413 6.60907 18.5464 6.72464 18.4782C6.94956 18.3446 6.99261 18.3201 7.42432 18.0756C7.70249 17.9176 8.06394 17.705 8.37724 17.5122C8.46959 17.4554 8.61802 17.3769 8.70414 17.3343C8.79138 17.2939 8.88373 17.2348 8.91149 17.2012C8.93812 17.17 8.97608 17.141 8.99534 17.141C9.0146 17.141 9.13131 17.0824 9.25538 17.0085C9.37945 16.9357 9.56528 16.8283 9.67179 16.7697C10.0049 16.5832 10.0287 16.5701 10.176 16.465C10.282 16.3893 10.3352 16.3746 10.3856 16.4058C10.4497 16.4462 10.4553 16.9943 10.4763 22.595C10.495 27.8353 10.5063 28.7535 10.559 28.816C10.6179 28.8865 11.117 29.1952 11.5793 29.4477C11.7068 29.5165 11.9827 29.6751 12.1929 29.7984C12.4037 29.9213 12.7651 30.131 12.9985 30.2664C13.2325 30.4005 13.7175 30.6842 14.0795 30.8929C14.4409 31.105 14.8404 31.3341 14.969 31.4057C15.1854 31.524 16.2692 32.1539 16.4102 32.2432C16.4448 32.2648 16.7105 32.4206 17.0045 32.5849C17.2957 32.7543 17.7807 33.0357 18.0838 33.2103C18.388 33.3871 18.826 33.6412 19.06 33.7754C20.6219 34.6709 21.1052 34.9574 21.1352 35.0052C21.2066 35.12 21.1737 35.1393 19.0815 36.3367C18.3733 36.7426 17.6311 37.1787 17.4657 37.2913C17.3088 37.3942 17.0703 37.4488 16.9666 37.4039ZM21.8842 34.1126C21.6406 33.975 21.423 33.8414 21.3952 33.8226C21.3703 33.8004 21.2241 33.7163 21.0734 33.6338C20.9193 33.5514 20.6247 33.3831 20.4146 33.2603C20.2049 33.1369 19.9109 32.9641 19.7591 32.8794C19.6067 32.793 19.2441 32.5832 18.9551 32.4126C18.3574 32.0635 18.0362 31.8765 17.5127 31.5837C17.315 31.4751 17.047 31.3187 16.919 31.2414C15.9253 30.6473 15.7423 30.541 15.7168 30.541C15.7004 30.541 15.5689 30.4665 15.4233 30.3755C15.2806 30.2885 14.8823 30.0532 14.5452 29.8604C13.9707 29.529 13.5441 29.2788 12.5538 28.6955C12.3306 28.5647 12.0603 28.4095 11.9493 28.3504C11.589 28.1559 11.6116 28.3242 11.619 25.7709C11.6224 24.5263 11.6354 23.4905 11.6456 23.4734C11.6887 23.4046 11.7833 23.4387 12.1991 23.6769C12.4286 23.81 12.7515 23.9936 12.9152 24.088C13.0778 24.1801 13.2818 24.2961 13.3645 24.3467C13.4523 24.3944 13.7367 24.5593 14.0013 24.7117C14.2659 24.8629 14.578 25.046 14.6959 25.1176C14.8115 25.1938 15.1537 25.39 15.459 25.5622C15.7621 25.7317 16.1802 25.9721 16.391 26.0961C16.6012 26.2257 17.2113 26.5782 17.7461 26.8852C18.8203 27.5027 19.3336 27.7983 19.9092 28.1355C20.1194 28.2594 20.5001 28.4823 20.7562 28.6307C21.0117 28.7762 21.385 28.9911 21.5822 29.1082C22.219 29.4795 22.296 29.5199 22.3907 29.5199C22.4416 29.5199 22.6456 29.4289 22.8422 29.3186C23.0359 29.2072 23.2881 29.0667 23.3968 29.0031C23.5067 28.9417 23.7662 28.7927 23.9764 28.6687C24.1872 28.5442 24.8732 28.1463 25.5021 27.7841C26.7848 27.0467 27.1269 26.8488 27.9173 26.3838C28.2226 26.2047 28.6895 25.9358 28.9574 25.7794C29.226 25.6253 29.4928 25.4673 29.5517 25.4292C29.6101 25.3928 29.7625 25.3035 29.8888 25.2364C30.1483 25.0943 31.38 24.3842 31.8933 24.0795C32.657 23.6269 33.0076 23.4382 33.0836 23.4382C33.1187 23.4382 33.1578 23.4683 33.172 23.5035C33.1844 23.5393 33.1974 24.5855 33.1974 25.8238V28.0775L33.0847 28.1815C33.0247 28.2389 32.7436 28.4169 32.4609 28.5801C32.1777 28.7393 31.8604 28.9223 31.7545 28.982C31.6491 29.0423 31.3448 29.2191 31.0769 29.3732C30.8089 29.5278 30.4945 29.7137 30.3772 29.7854C30.2611 29.8581 29.7846 30.1367 29.3178 30.4057C28.0884 31.1141 26.8913 31.8054 26.4652 32.0556C26.2624 32.175 25.7814 32.4552 25.3967 32.6753C25.0126 32.8981 24.3073 33.3069 23.828 33.5832C22.7538 34.2047 22.4507 34.369 22.3793 34.369C22.3465 34.3684 22.1255 34.2541 21.8842 34.1126ZM4.7899 30.2936C4.73551 30.2493 4.47094 30.0895 4.20183 29.936C3.93386 29.7825 3.42737 29.492 3.07894 29.293C2.72995 29.09 2.26539 28.8251 2.0501 28.7017C1.83312 28.5801 1.50962 28.3811 1.32946 28.2634L1.00087 28.0519L0.980472 15.6366L1.07055 15.5399C1.12097 15.4859 1.38272 15.3182 1.65579 15.1624C1.9232 15.0101 2.40419 14.7332 2.71862 14.5501C3.03305 14.3653 3.67325 13.9946 4.13781 13.7274C5.39327 13.0071 6.53145 12.3453 6.85211 12.1526C6.96712 12.0792 7.23396 11.9274 7.44472 11.8109C7.6549 11.6943 7.90531 11.5436 8.00332 11.4783C8.1019 11.4106 8.18972 11.356 8.20445 11.356C8.22541 11.356 9.43724 10.6613 10.6768 9.93751C10.9607 9.76979 11.3012 9.57023 11.432 9.49461C11.5635 9.41843 11.7119 9.35645 11.7623 9.35645C11.8128 9.35645 12.0348 9.46277 12.2569 9.59297C12.4767 9.72146 12.7334 9.86644 12.828 9.91249C12.9209 9.95968 13.1634 10.0978 13.3651 10.2195C13.5696 10.3417 13.9509 10.564 14.2121 10.7141C14.4755 10.8631 14.7582 11.0274 14.8398 11.078C14.969 11.1593 15.4981 11.464 15.6868 11.5647C15.7893 11.6193 15.7842 11.7563 15.6788 11.8518C15.6244 11.9007 15.4771 11.9979 15.3485 12.0678C15.2199 12.1389 14.9242 12.3083 14.6931 12.4436C14.4579 12.5778 14.1424 12.7592 13.9928 12.8456C13.1283 13.3408 11.7108 14.1697 11.5776 14.2573C11.5176 14.2965 11.3533 14.3909 11.2111 14.4677C11.0689 14.5467 10.8587 14.6649 10.7454 14.7326C10.6309 14.7997 10.4332 14.9123 10.3046 14.9833C10.1766 15.0538 9.93863 15.192 9.77433 15.2903C9.43554 15.4933 7.63904 16.5298 6.38358 17.2467C5.58986 17.7021 5.26523 17.9102 5.19668 18.0063C5.14229 18.0836 5.13379 18.8943 5.13379 24.1886C5.13379 30.1686 5.13379 30.2823 5.05277 30.3255C4.94003 30.3875 4.90604 30.3823 4.7899 30.2936ZM21.8354 27.9205C21.1596 27.5294 20.6038 27.2053 20.1925 26.9626C19.9998 26.8488 19.835 26.7533 19.8259 26.7533C19.8169 26.7533 19.6106 26.6368 19.3693 26.4929C19.1285 26.3491 18.8452 26.1842 18.741 26.1268C18.2515 25.8545 18.2725 25.7982 18.9965 25.3877C19.652 25.0142 20.3726 24.5934 20.9239 24.2659C21.1346 24.1414 21.3862 23.9953 21.4842 23.939C21.6751 23.8356 22.1329 23.5723 23.0529 23.0373C23.3628 22.8594 23.8688 22.5677 24.1764 22.3886C24.8183 22.0174 25.6364 21.5421 26.0856 21.276C26.2522 21.1799 26.497 21.04 26.625 20.969C26.7536 20.8973 27.0176 20.7433 27.2142 20.6284C27.4102 20.5119 27.5773 20.4158 27.5887 20.4158C27.5972 20.4158 27.7422 20.3328 27.9105 20.231C28.0782 20.1315 28.3733 19.9558 28.5682 19.8421C28.7597 19.7267 28.9421 19.5942 28.9705 19.547C29.0073 19.4794 29.0249 17.9568 29.0419 13.3317L29.0617 7.2085L29.1535 7.19371C29.2067 7.18746 29.4356 7.29378 29.7047 7.45411C29.9563 7.60307 30.512 7.92429 30.9375 8.1682C31.363 8.4121 31.8411 8.68614 31.9975 8.77654C32.7408 9.20238 33.0762 9.41501 33.1323 9.49745C33.1867 9.57648 33.1957 10.3753 33.1957 15.7367C33.1957 21.102 33.1867 21.8974 33.1323 21.9753C33.0983 22.0259 32.8354 22.2004 32.5499 22.363C32.2644 22.5245 31.8004 22.794 31.5227 22.9549C31.24 23.1169 30.9483 23.2863 30.8707 23.333C30.7925 23.3773 30.5251 23.5359 30.2769 23.6843C30.0293 23.8327 29.7104 24.0158 29.5721 24.0908C29.4322 24.1687 29.0793 24.3711 28.788 24.5411C27.9745 25.0164 27.1836 25.4764 26.8799 25.6498C26.7287 25.7345 26.4239 25.9125 26.2018 26.0444C25.9803 26.174 25.6749 26.3508 25.5236 26.4332C25.2126 26.6061 24.9577 26.7516 24.3549 27.1087C23.168 27.8108 22.5606 28.1497 22.449 28.173C22.3431 28.198 22.2377 28.1525 21.8354 27.9205ZM23.7504 21.0451C23.7113 21.0076 23.6999 19.5806 23.6999 14.8833C23.6999 9.12562 23.6954 8.76574 23.6257 8.68046C23.5838 8.6327 23.3305 8.46441 23.0637 8.31033C22.6105 8.04767 21.3397 7.31822 20.9023 7.07091C20.7964 7.01235 20.6157 6.90262 20.4978 6.827C20.3823 6.75082 20.1653 6.62233 20.0129 6.54159C19.8599 6.46029 19.4401 6.2215 19.0798 6.00887C18.7183 5.79851 18.1841 5.48695 17.8929 5.31638C17.1904 4.90533 16.8057 4.68473 16.6012 4.57045C16.178 4.33962 15.4788 3.93141 15.2834 3.80519C15.1655 3.72787 14.8998 3.57038 14.6908 3.4544C14.4806 3.33899 14.1871 3.17183 14.0353 3.08314C13.8829 2.99615 13.6546 2.86596 13.5265 2.79489C13.2518 2.64423 13.0393 2.45149 13.0778 2.38611C13.0937 2.36052 13.245 2.25989 13.411 2.16381C13.5798 2.06488 13.888 1.88522 14.0999 1.76469C14.3089 1.64302 14.671 1.43152 14.9038 1.29564C15.1372 1.16033 15.4896 0.952808 15.6868 0.836825C17.1371 -0.0154226 17.0623 0.00504389 17.5535 0.293864C17.7275 0.396202 17.9943 0.550847 18.1467 0.636128C18.2974 0.722547 18.4889 0.831708 18.5716 0.879466C18.6532 0.927792 19.0231 1.14327 19.3976 1.35932C19.7693 1.57593 20.2571 1.85793 20.4774 1.98756C21.0276 2.30822 21.9255 2.82616 22.2587 3.01833C22.4099 3.10474 22.9068 3.39186 23.36 3.65396C23.8149 3.9189 24.3679 4.23842 24.5894 4.36748C24.8115 4.49427 25.2506 4.75125 25.565 4.93546C25.8794 5.1191 26.497 5.47444 26.936 5.72573C27.3983 5.98897 27.7654 6.22833 27.8051 6.28973C27.8697 6.38752 27.8765 6.9066 27.8861 12.4931C27.8952 17.6202 27.8889 18.6101 27.8397 18.7295C27.7898 18.8494 27.6737 18.9313 27.0635 19.277C26.34 19.6869 25.9865 19.891 25.5656 20.1434C25.4387 20.2213 25.2194 20.3475 25.0783 20.4271C24.939 20.5073 24.6217 20.6898 24.3736 20.8336C23.9033 21.1071 23.8359 21.131 23.7504 21.0451ZM1.0275 14.0623C0.991803 14.0191 0.978207 13.4096 0.97934 11.7324L0.980472 9.46334L1.13684 9.33599C1.22295 9.26662 1.49546 9.09094 1.7402 8.94938C1.98778 8.80781 2.44555 8.54287 2.76055 8.35923C3.07668 8.17673 3.55201 7.90326 3.82055 7.75032C4.08852 7.59852 4.35423 7.4416 4.41372 7.40066C4.47264 7.35973 4.53892 7.31936 4.56328 7.31027C4.65053 7.27558 5.20801 6.95606 5.4165 6.82018C5.53774 6.74115 5.64821 6.67691 5.66237 6.67691C5.67824 6.67691 5.79211 6.61039 5.91959 6.52852C6.04706 6.44722 6.21362 6.3517 6.2901 6.31588C6.36545 6.2795 6.65666 6.11405 6.93653 5.94746C7.61524 5.5438 8.47412 5.04575 8.86617 4.8263C9.26388 4.604 10.4157 3.93425 10.9205 3.63122C11.4315 3.32364 11.696 3.18889 11.7816 3.18889C11.8213 3.18889 12.0246 3.28725 12.2337 3.40664C12.4439 3.52661 12.8161 3.7381 13.0597 3.87626C13.3056 4.01555 13.573 4.1719 13.6534 4.22535C13.7962 4.31859 14.5044 4.72737 15.0959 5.06054C15.2471 5.14582 15.4381 5.25441 15.5196 5.3016C15.6024 5.34993 15.9145 5.53357 16.2199 5.70868C16.5218 5.88436 16.9989 6.15896 17.2782 6.32441C17.5586 6.48701 17.9971 6.74115 18.2543 6.89011C18.511 7.03736 18.7869 7.19883 18.8685 7.25171C19.0486 7.36428 19.6327 7.69574 19.652 7.69574C19.6611 7.69574 19.8163 7.78784 19.9987 7.89871C20.1817 8.01014 20.4344 8.15796 20.5624 8.22505C20.6922 8.29441 20.8922 8.4104 21.0094 8.48488C21.1261 8.55822 21.3884 8.71116 21.5918 8.82657C22.2485 9.19499 22.3385 9.25014 22.4484 9.35475L22.5555 9.45481V11.7608C22.5555 13.8718 22.5493 14.0702 22.4853 14.0947C22.4167 14.1226 22.2722 14.0447 21.2621 13.4585C21.0531 13.3374 20.6134 13.0838 20.2877 12.8962C19.9619 12.7086 19.5517 12.4721 19.3772 12.368C19.0311 12.1611 18.5223 11.8671 18.2543 11.7153C18.1614 11.663 17.9121 11.5198 17.702 11.3975C17.4935 11.2747 17.2567 11.1366 17.1819 11.0939C17.1037 11.0479 16.7983 10.8722 16.5037 10.7022C16.2069 10.5299 15.8596 10.3321 15.7315 10.2604C15.4086 10.0796 15.0573 9.87667 14.6092 9.61116C14.0455 9.2797 13.2336 8.80667 13.0399 8.69808C12.9458 8.64691 12.7475 8.53036 12.5951 8.4411C12.0065 8.09486 11.8921 8.03857 11.7748 8.03857C11.6689 8.03743 11.4547 8.14489 10.8372 8.50534C10.7652 8.544 10.461 8.72253 10.159 8.89707C9.85422 9.07275 9.50693 9.27572 9.38342 9.35077C9.25935 9.4224 9.14887 9.4821 9.13981 9.4821C9.12791 9.4821 9.018 9.54805 8.89676 9.62879C8.71037 9.74989 8.07754 10.1166 5.58079 11.5482C5.48731 11.6022 5.18761 11.7762 4.91227 11.9365C4.21033 12.3481 2.00705 13.6262 1.82915 13.7257C1.74814 13.7723 1.58441 13.8673 1.46373 13.9384C1.1765 14.1112 1.08812 14.1368 1.0275 14.0623Z" fill="#E19000"/>
<path d="M42.866 11.0378L44.828 5.5531L46.7888 11.0378H42.866ZM48.2618 15.0853L48.306 15.3025C48.306 15.5481 48.1054 15.7101 47.7037 15.7892C47.3038 15.8699 46.5656 15.908 45.4931 15.908V16.1229H53.4139V15.908C52.3415 15.908 51.699 15.8545 51.4831 15.7465C51.2696 15.6385 51.0537 15.2894 50.839 14.6987L46.2007 2.05371H45.7713L42.1431 12.1971C41.6706 13.5053 41.2831 14.3684 40.9829 14.7857C40.4401 15.5345 39.6753 15.908 38.6867 15.908V16.1229H44.1391V15.908C43.4105 15.908 42.8439 15.7931 42.444 15.5623C42.0429 15.3309 41.8429 14.9489 41.8429 14.4139C41.8429 14.0682 41.929 13.6571 42.0995 13.1807L42.7607 11.2755H46.8987L48.2618 15.0853ZM66.5764 14.3144C67.9066 13.0351 68.5734 11.3477 68.5734 9.2492C68.5734 7.12456 67.8216 5.37912 66.3192 4.01462C65.0167 2.82125 63.5573 2.22484 61.9387 2.22484H53.5646V2.41872C54.8524 2.41872 55.7277 2.5057 56.1849 2.67854C56.3435 2.73596 56.4353 2.79396 56.4647 2.85138C56.522 2.96679 56.552 3.22605 56.552 3.62915V14.697C56.552 15.1291 56.522 15.3963 56.4647 15.4969C56.4358 15.5544 56.3356 15.6163 56.1645 15.6806C55.9922 15.7448 55.6784 15.8 55.2201 15.8437C54.7617 15.887 54.2099 15.9069 53.5658 15.9069V16.1218H61.9194C63.7635 16.1229 65.317 15.5197 66.5764 14.3144ZM60.4832 15.8978C60.0085 15.8898 59.6991 15.858 59.5575 15.8C59.4136 15.7442 59.315 15.6493 59.2663 15.5185C59.2159 15.3889 59.1904 15.1154 59.1904 14.6981V3.62971C59.1904 3.19819 59.2159 2.92813 59.2663 2.81954C59.315 2.71208 59.417 2.62908 59.5671 2.57165C59.7178 2.51366 59.9767 2.47443 60.3444 2.45226C60.7087 2.43122 61.2373 2.41929 61.9262 2.41929C63.2338 2.41929 64.2235 3.05378 64.9006 4.3222C65.5317 5.50477 65.8467 7.14673 65.8467 9.25148C65.8467 11.4699 65.5351 13.1352 64.9096 14.2433C64.2853 15.3548 63.2916 15.9086 61.9262 15.9086C61.4373 15.908 60.9563 15.9051 60.4832 15.8978ZM69.0669 2.22541V8.32418H69.3677C69.7247 6.00282 70.2623 4.39498 70.9773 3.50122C71.5659 2.78031 72.4163 2.41985 73.533 2.41985C73.7896 2.41985 73.9403 2.42838 73.9845 2.4426C74.0689 2.47102 74.1131 2.67342 74.1131 3.04696V14.6987C74.1131 15.1012 74.0876 15.3502 74.0372 15.4452C73.9879 15.5379 73.8768 15.6186 73.7057 15.6823C73.533 15.7465 73.2038 15.8017 72.7171 15.8454C72.231 15.8887 71.579 15.9086 70.7648 15.9086V16.1235H80.1031V15.9086C79.2732 15.9086 78.6154 15.8881 78.1282 15.8454C77.6421 15.8017 77.3129 15.7465 77.1396 15.6823C76.9685 15.6186 76.8687 15.5561 76.8404 15.4986C76.7821 15.3832 76.7537 15.116 76.7537 14.6987V3.02535C76.7537 2.69389 76.7826 2.50627 76.8404 2.46306C76.8693 2.43407 77.0262 2.41929 77.3129 2.41929C78.4573 2.41929 79.3236 2.78827 79.9111 3.5234C80.6255 4.40123 81.1478 6.01703 81.4787 8.36739H81.779V2.22541H69.0669Z" fill="black"/>
<path d="M41.3307 30.8078C41.5602 30.8078 41.6763 30.6879 41.6763 30.4508C41.6763 30.0312 41.6406 29.4666 41.5709 28.7588C41.4939 28.0652 41.4565 27.5307 41.4565 27.16C41.4565 26.774 41.3851 26.0571 41.2457 25.0064C41.1143 23.9341 41.0474 23.257 41.0474 22.9773C40.9698 22.9215 40.8588 22.8931 40.7109 22.8931C40.5642 22.8931 40.4112 23.1347 40.2526 23.6174C40.1053 24.0529 39.967 24.5919 39.8373 25.2372C39.7076 25.8837 39.5671 26.6609 39.413 27.5717L39.0691 29.4945C38.9694 30.0409 38.8827 30.37 38.8056 30.4803C38.847 30.623 39.0017 30.6924 39.2662 30.6924C39.3082 30.623 39.3512 30.5247 39.3926 30.4007C39.4339 30.2796 39.4736 30.1335 39.5065 29.9664C39.5421 29.7981 39.5631 29.6906 39.5699 29.6406L39.6118 29.4302C39.647 29.2193 39.7019 29.0402 39.7807 28.8947C40.0022 28.9083 40.2407 28.9407 40.4922 28.9896C40.7438 29.0385 40.9154 29.0948 41.005 29.1573V30.5343C41.005 30.6338 41.0304 30.7032 41.0837 30.7436C41.1358 30.7868 41.218 30.8078 41.3307 30.8078ZM40.7863 28.5467C40.4565 28.5467 40.1472 28.5058 39.8526 28.4216C39.8594 28.2118 39.9161 27.7837 40.0214 27.1396C40.1268 26.4943 40.239 25.8893 40.3614 25.3265C40.4837 24.7631 40.58 24.4447 40.6486 24.3742V24.4595C40.6486 24.8154 40.7302 25.7881 40.8905 27.3693C40.9392 27.8264 40.9738 28.2079 40.9942 28.5154C40.9109 28.5371 40.8407 28.5467 40.7863 28.5467ZM43.2689 30.8709H44.0224C44.2167 30.7657 44.377 30.6606 44.5033 30.556C44.7691 30.3246 44.9724 30.0613 45.1112 29.7668C45.2302 29.4945 45.3101 29.1806 45.3515 28.8316C45.3792 28.5717 45.3934 28.2181 45.3934 27.7689V27.1902L45.4053 26.9076C45.4109 26.8297 45.4143 26.7473 45.4143 26.6552C45.4143 26.4039 45.3843 26.148 45.3203 25.8876C45.2025 25.3765 44.9577 24.9075 44.5883 24.4805C44.4133 24.2838 44.2121 24.1308 43.9861 24.0217C43.7589 23.9137 43.5238 23.8591 43.2779 23.8591C43.1873 23.8591 43.104 23.8926 43.0264 23.9643C42.9505 24.033 42.9108 24.1155 42.9108 24.2047C42.9108 24.319 42.9295 24.6306 42.9641 25.1417C43.0054 25.6102 43.0264 25.9576 43.0264 26.1816C43.0264 26.7911 43.0241 27.342 43.0162 27.8326L42.9946 29.4933C42.9946 30.4127 43.0864 30.8709 43.2689 30.8709ZM43.7283 30.3354V30.0841C43.7283 29.5093 43.7051 28.7343 43.6552 27.7599C43.5997 26.6609 43.5725 25.8888 43.5725 25.447C43.5725 25.0343 43.5963 24.6704 43.645 24.3554C44.462 24.4452 44.8705 25.5499 44.8705 27.666C44.8705 27.8269 44.8682 27.9475 44.8597 28.0328C44.8472 28.3636 44.8076 28.6854 44.7436 29.001C44.7169 29.1607 44.6716 29.3279 44.6138 29.5002C44.5543 29.6713 44.4892 29.8134 44.4201 29.9266C44.3357 30.0522 44.2348 30.1506 44.1153 30.2239C43.9974 30.299 43.8671 30.3354 43.7283 30.3354ZM47.561 30.9335C47.723 30.9335 47.8652 30.818 47.991 30.5878C48.1179 30.3558 48.217 30.0369 48.2952 29.6309C48.4142 28.9583 48.5003 28.1982 48.5564 27.3494C48.5853 26.973 48.6153 26.695 48.647 26.5187C48.6788 26.3436 48.7428 26.0815 48.8397 25.7313C48.9592 25.3253 49.0481 24.9774 49.1065 24.6857C49.1671 24.3935 49.196 24.1229 49.196 23.8699C49.196 23.8085 49.1728 23.7522 49.1218 23.7073C49.0736 23.6618 49.0187 23.6379 48.9558 23.6379H48.7241C48.6482 24.0956 48.5145 24.9461 48.3269 26.1947C48.0969 27.6507 47.9071 28.765 47.7604 29.5354C47.7394 29.4257 47.7151 29.2386 47.6873 28.9788L47.5615 28.0447L47.4992 27.6336C47.3814 26.8058 47.28 26.1947 47.1956 25.7944C47.1049 25.3737 47.0222 25.0229 46.9451 24.7375C46.8687 24.4543 46.7837 24.2281 46.6919 24.0603C46.6024 23.8847 46.5038 23.7977 46.399 23.7977C46.3372 23.7977 46.2789 23.821 46.2279 23.8704C46.1741 23.9199 46.1475 23.9768 46.1475 24.0382C46.1475 24.1433 46.2115 24.3941 46.3367 24.7847C46.3848 24.9325 46.4166 25.0411 46.4313 25.1116C46.7525 26.3578 46.9882 27.4125 47.1383 28.2744C47.2896 29.1352 47.3627 29.9692 47.3627 30.7754L47.561 30.9335ZM52.3063 30.9016C52.4179 30.8613 52.4746 30.7623 52.4746 30.6083V30.5975C52.4746 30.4991 52.4434 30.2819 52.3805 29.9465C52.3086 29.5746 52.2746 29.3631 52.2746 29.3137C52.2746 29.2648 52.257 29.1596 52.2219 28.9998C52.1868 28.8242 52.1704 28.7156 52.1704 28.6746C52.1704 28.2397 52.1012 27.4813 51.9596 26.4039C51.8146 25.3526 51.7404 24.5607 51.7404 24.0279C51.7404 23.9438 51.7058 23.8778 51.6361 23.8335C51.5664 23.788 51.4826 23.7647 51.3846 23.7647H51.0288C50.9733 23.8414 50.933 23.9569 50.9087 24.1121C50.8832 24.2661 50.8611 24.4731 50.8401 24.7318C50.8333 24.8586 50.8254 24.9541 50.818 25.0223C50.8124 25.0866 50.8095 25.1337 50.8095 25.1639C50.571 26.9144 50.2215 28.69 49.7609 30.4911L49.7501 30.5338L49.7291 30.5867C49.7291 30.664 49.7643 30.7282 49.8334 30.7811C49.9048 30.8328 49.9807 30.8607 50.0645 30.8607C50.1546 30.8607 50.226 30.8283 50.2747 30.7657C50.3654 30.6543 50.4316 30.4252 50.4724 30.0835C50.5495 29.5928 50.6101 29.2654 50.652 29.105L51.6871 29.2625L51.7313 29.4825C51.801 29.9874 51.8355 30.3445 51.8355 30.556C51.8355 30.6873 51.8735 30.78 51.9511 30.8283C52.027 30.8777 52.1454 30.9016 52.3063 30.9016ZM51.6146 28.8839C51.1047 28.8429 50.7976 28.7855 50.694 28.7161C50.8044 27.8747 51.0118 26.6319 51.312 24.9854L51.4157 26.0764C51.5279 27.06 51.584 27.8639 51.584 28.4944C51.5834 28.6502 51.5942 28.7798 51.6146 28.8839ZM56.2336 30.8391C56.2823 30.8391 56.4092 30.8124 56.6109 30.7561C56.7078 30.5946 56.7933 29.8828 56.8625 28.6212C56.9316 27.3596 56.9735 26.1907 56.9871 25.1116V24.3213C56.9871 24.2042 56.9616 24.1058 56.9083 24.0279C56.8574 23.9506 56.7814 23.9131 56.684 23.9131C56.5157 23.9131 56.4325 24.0177 56.4325 24.2281C56.4325 24.277 56.4359 24.3213 56.4432 24.3645V24.501C56.4432 26.554 56.3735 28.3324 56.2336 29.8396C56.1509 29.5957 56.0279 29.188 55.8665 28.6206L55.7622 28.2425C55.5033 27.3249 55.2954 26.6171 55.139 26.119C54.9827 25.6221 54.8059 25.1491 54.6105 24.7011C54.3663 24.1399 54.1629 23.8602 54.0031 23.8602C53.9895 23.8602 53.9606 23.867 53.9198 23.8812V23.8187C53.6694 24.008 53.5437 24.2667 53.5437 24.597C53.5437 24.8057 53.5323 25.132 53.5102 25.5721C53.4893 26.0002 53.4791 26.3266 53.4791 26.5511C53.4791 27.2175 53.4836 27.819 53.4893 28.3585L53.5 30.1568C53.5 30.5838 53.6139 30.7976 53.8354 30.7976C53.9255 30.7976 54.0037 30.7663 54.0666 30.7038C54.1295 30.6401 54.1606 30.5616 54.1606 30.4718C54.1606 30.4366 54.1499 30.4019 54.1295 30.3655C54.1085 30.3319 54.0943 30.3081 54.0875 30.2927L54.0462 30.2188V24.9325C54.3193 25.5772 54.6937 26.5722 55.1719 27.9179C55.6506 29.2631 55.8886 30.0517 55.8886 30.2825V30.3354L55.9509 30.5349C55.9747 30.6469 56.0053 30.7259 56.0466 30.772C56.088 30.8169 56.1509 30.8391 56.2336 30.8391ZM59.7943 30.9551C60.1796 30.9551 60.3716 30.8181 60.3716 30.5451C60.3716 30.4684 60.3416 30.411 60.2815 30.3717C60.2226 30.3337 60.1473 30.3126 60.0572 30.3126C59.979 30.37 59.9025 30.3968 59.8255 30.3968C59.7008 30.3968 59.5841 30.3752 59.481 30.3348C59.2782 30.2489 59.1354 30.1131 59.0504 29.9254C58.966 29.756 58.9088 29.5451 58.8731 29.2938C58.8522 29.1255 58.842 28.9083 58.842 28.6428C58.842 28.263 58.8488 27.9236 58.8624 27.6223L58.8839 26.6131V26.5602C58.8839 26.2384 58.9292 25.8177 59.0199 25.2992C59.0618 25.0178 59.136 24.7915 59.2408 24.6158C59.3456 24.4407 59.4663 24.3543 59.6068 24.3543H60.0997C60.1614 24.3457 60.2164 24.3145 60.2617 24.2588C60.3065 24.2036 60.3314 24.1394 60.3314 24.0694C60.3314 23.9927 60.3008 23.9284 60.2453 23.8807C60.1898 23.8301 60.1082 23.8079 60.0051 23.8079C59.7456 23.8079 59.5309 23.8454 59.3552 23.9239C59.1592 24.0006 59.0012 24.095 58.8794 24.2047C58.7564 24.319 58.6544 24.4765 58.5706 24.6795C58.472 24.8972 58.4023 25.0922 58.3598 25.2628C58.3185 25.4345 58.2873 25.6574 58.2664 25.9303C58.2454 26.1895 58.2307 26.43 58.2244 26.6501C58.2176 26.8718 58.2125 27.1202 58.2125 27.4034V28.2624C58.2125 29.6082 58.4459 30.4309 58.915 30.7328C59.0051 30.7902 59.1377 30.8402 59.3077 30.8857C59.4793 30.9318 59.6408 30.9551 59.7943 30.9551ZM61.7959 30.9443H62.6854C62.8117 30.9443 62.9165 30.9175 63.0043 30.8652C63.0922 30.8118 63.1358 30.7379 63.1358 30.6395C63.1358 30.4712 63.0043 30.3877 62.7375 30.3877C62.5692 30.3877 62.4265 30.3911 62.3075 30.3979L61.9613 30.4087C61.9477 30.4087 61.9404 30.2131 61.9404 29.8186C61.9404 29.6105 61.9523 29.2926 61.9727 28.864C61.9783 28.5837 61.9823 28.2693 61.9823 27.9185C61.9823 27.5677 61.9766 27.3005 61.9613 27.1202H62.2248C62.2945 27.1322 62.3913 27.1407 62.5171 27.1407C62.6157 27.1407 62.6944 27.1129 62.7585 27.0623C62.8208 27.0094 62.8536 26.944 62.8536 26.8684C62.8536 26.6705 62.6848 26.5722 62.35 26.5722C62.2667 26.5722 62.1959 26.5773 62.1409 26.583L61.9727 26.5938L61.9404 26.4255C61.9404 26.2572 61.9523 26.0048 61.9727 25.6693C61.9783 25.4453 61.9823 25.1917 61.9823 24.9103C61.9823 24.7164 61.9789 24.5646 61.9727 24.4606C62.2095 24.4947 62.4741 24.5646 62.7687 24.6704C62.8531 24.6351 62.9228 24.5874 62.9817 24.5288C63.0406 24.4691 63.0712 24.4043 63.0712 24.3338C63.0712 24.2059 62.9199 24.0984 62.6163 24.0086C62.312 23.9171 62.0452 23.871 61.8157 23.871C61.5217 23.871 61.375 24.1195 61.375 24.6175C61.375 24.7079 61.3857 24.8563 61.4061 25.0598C61.4271 25.2554 61.4373 25.4032 61.4373 25.4999C61.4373 25.9144 61.4248 26.4255 61.3954 27.035C61.3744 27.7149 61.3642 28.2261 61.3642 28.5695L61.3852 29.2409C61.4061 29.5428 61.4163 29.7679 61.4163 29.9163C61.4163 29.9982 61.4197 30.0727 61.4271 30.1347V30.6196C61.435 30.7089 61.4741 30.7868 61.5495 30.8499C61.622 30.913 61.703 30.9443 61.7959 30.9443ZM64.6235 30.8709H65.377C65.5725 30.7657 65.7311 30.6606 65.8586 30.556C66.1249 30.3246 66.3265 30.0613 66.4665 29.7668C66.5843 29.4945 66.6653 29.1806 66.7067 28.8316C66.7344 28.5717 66.7486 28.2181 66.7486 27.7689V27.1902L66.7594 26.9076C66.765 26.8297 66.769 26.7473 66.769 26.6552C66.769 26.4039 66.7384 26.148 66.675 25.8876C66.5566 25.3765 66.3118 24.9075 65.9424 24.4805C65.7674 24.2838 65.5668 24.1308 65.3408 24.0217C65.1136 23.9137 64.879 23.8591 64.6337 23.8591C64.5419 23.8591 64.4581 23.8926 64.3816 23.9643C64.3046 24.033 64.266 24.1155 64.266 24.2047C64.266 24.319 64.283 24.6306 64.3193 25.1417C64.3612 25.6102 64.3816 25.9576 64.3816 26.1816C64.3816 26.7911 64.3771 27.342 64.3714 27.8326L64.3493 29.4933C64.3499 30.4127 64.4422 30.8709 64.6235 30.8709ZM65.083 30.3354V30.0841C65.083 29.5093 65.0592 28.7343 65.0105 27.7599C64.9544 26.6609 64.9266 25.8888 64.9266 25.447C64.9266 25.0343 64.9504 24.6704 64.9991 24.3554C65.8178 24.4452 66.2257 25.5499 66.2257 27.666C66.2257 27.8269 66.2223 27.9475 66.2149 28.0328C66.2008 28.3636 66.1617 28.6854 66.0994 29.001C66.0716 29.1607 66.0274 29.3279 65.9691 29.5002C65.9084 29.6713 65.8456 29.8134 65.7759 29.9266C65.6898 30.0522 65.5906 30.1506 65.4705 30.2239C65.3527 30.299 65.2235 30.3354 65.083 30.3354ZM70.3524 30.8289C70.6017 30.8289 70.8447 30.7385 71.0736 30.5565C71.4656 30.2336 71.8186 29.6866 72.1319 28.9163C72.2571 28.5933 72.354 28.2767 72.4197 27.9634C72.4854 27.6547 72.5205 27.384 72.5205 27.1606C72.5205 27.1197 72.5154 27.0827 72.5103 27.056C72.5018 27.0276 72.4996 26.9861 72.4996 26.9292C72.4996 26.9014 72.5069 26.8729 72.52 26.8456V26.0144C72.52 25.7898 72.4996 25.4823 72.4554 25.09C72.38 24.642 72.2894 24.2906 72.1852 24.0376C72.0305 23.668 71.8418 23.3838 71.6186 23.1871C71.3393 22.9557 71.0107 22.8402 70.634 22.8402H70.4776C69.9411 22.8402 69.6703 22.9642 69.6703 23.2075C69.6703 23.3349 69.7133 23.5555 69.796 23.8704C69.8657 24.1723 69.902 24.4202 69.902 24.6169C69.902 24.8353 69.8997 25.0291 69.8901 25.1957L69.8697 25.7745C69.8697 26.1958 69.9054 26.7706 69.9745 27.4978C70.038 28.2602 70.068 28.8435 70.068 29.2409C70.068 29.9072 69.9921 30.3189 69.8397 30.4718C69.8397 30.5838 69.8907 30.6719 69.9898 30.7345C70.0912 30.797 70.2119 30.8289 70.3524 30.8289ZM70.5711 30.2188V29.2199C70.5711 28.5689 70.5297 27.6092 70.4459 26.3413C70.3615 25.0655 70.319 24.1126 70.319 23.4827V23.4708C70.5512 23.4708 70.7558 23.5185 70.9376 23.6129C71.1195 23.7078 71.2696 23.8403 71.3886 24.008C71.6396 24.3565 71.8033 24.7506 71.8798 25.1843C71.9506 25.6324 71.9863 26.0468 71.9863 26.4249C71.9863 27.1254 71.8917 27.819 71.7025 28.5058C71.5982 28.8776 71.4481 29.2142 71.2509 29.5195C71.0577 29.8248 70.83 30.0573 70.5711 30.2188ZM74.3216 30.797C74.3845 30.797 74.5272 30.7908 74.7516 30.776C74.8558 30.776 74.9272 30.7737 74.9663 30.7714C75.0031 30.7669 75.0264 30.7657 75.0337 30.7657L75.2943 30.5872V30.5247C75.2943 30.2791 75.1487 30.1568 74.8558 30.1568C74.759 30.1568 74.6881 30.1597 74.6468 30.1682V29.7679C74.6468 29.4314 74.6298 29.1016 74.5947 28.7804C74.5533 28.2897 74.5255 27.9185 74.5114 27.6666C74.4275 26.3004 74.385 25.2765 74.385 24.5982C74.385 24.5129 74.4003 24.4555 74.4326 24.4219C74.4632 24.3912 74.5153 24.3753 74.5839 24.3753H74.6672C74.6938 24.3844 74.7306 24.3855 74.7731 24.3855C74.8422 24.3855 74.9 24.3577 74.9465 24.3025C74.9901 24.2468 75.0139 24.1803 75.0139 24.1047C75.0139 24.0251 74.9827 23.9574 74.9227 23.8994C74.8649 23.8392 74.7935 23.8102 74.7091 23.8102C74.4932 23.8102 74.2462 23.838 73.9664 23.8938C73.8055 23.921 73.6723 23.9665 73.5686 24.0296C73.4627 24.0927 73.4123 24.1667 73.4123 24.2502C73.4123 24.4197 73.4944 24.5027 73.6638 24.5027C73.712 24.5027 73.7907 24.489 73.904 24.4612C73.925 24.6141 73.9352 24.8068 73.9352 25.0382L73.925 25.5732C73.9176 25.737 73.9142 25.9149 73.9142 26.1111C73.9142 26.6569 73.9454 27.4676 74.0077 28.5382C74.0355 28.9731 74.061 29.275 74.0819 29.4427C74.0955 29.6952 74.1018 29.8805 74.1018 29.9993C74.1018 30.0909 74.0904 30.1534 74.0695 30.1892C74.0485 30.2245 74.0117 30.241 73.955 30.241L73.8497 30.2307H73.7346C73.5194 30.2307 73.4117 30.3143 73.4117 30.482C73.4111 30.693 73.7137 30.797 74.3216 30.797ZM77.5276 30.892C77.8602 30.892 78.1452 30.7959 78.3803 30.6037C78.6143 30.4104 78.7321 30.1455 78.7321 29.8083L78.7106 29.2517C78.6902 29.0004 78.6783 28.8139 78.6783 28.6951C78.6783 28.6098 78.6998 28.4842 78.74 28.3165C78.7752 28.1266 78.7939 28.0003 78.7939 27.9367C78.7939 27.7206 78.4794 27.6115 77.8517 27.6115H77.7038V27.6012C77.5985 27.6012 77.5146 27.628 77.4489 27.6808C77.3815 27.7331 77.3469 27.8093 77.3469 27.9065C77.3469 28.0657 77.4699 28.1493 77.714 28.1493H77.9231C78.0347 28.1493 78.1146 28.1595 78.1644 28.1806V28.6638C78.1644 29.785 77.9984 30.3445 77.6619 30.3445C77.5356 30.3445 77.4138 30.3081 77.2954 30.229C77.1911 30.1591 77.1061 30.0744 77.0393 29.9721C76.9724 29.8703 76.9141 29.735 76.8659 29.5661C76.7758 29.279 76.7152 28.9424 76.6886 28.5575C76.6676 28.1459 76.6557 27.819 76.6557 27.5808C76.6557 27.3494 76.6705 26.9963 76.6994 26.5187C76.7407 26.0087 76.8172 25.5357 76.9277 25.1019C76.9911 24.8768 77.0687 24.7017 77.1594 24.576C77.2506 24.4492 77.3543 24.3844 77.4738 24.3844C77.5146 24.3844 77.5509 24.3895 77.5775 24.3958C77.6132 24.4043 77.6517 24.4077 77.6936 24.4077C77.7843 24.4077 77.8636 24.3804 77.9288 24.327C77.995 24.2758 78.029 24.2059 78.029 24.1234C78.029 23.9472 77.8778 23.8608 77.5775 23.8608C77.4115 23.8608 77.2636 23.8852 77.139 23.9353C76.8733 24.0245 76.6676 24.19 76.5203 24.4282C76.3668 24.667 76.2592 24.9439 76.1957 25.2588C76.1198 25.6085 76.0728 25.9411 76.0597 26.2572C76.0456 26.5164 76.0393 26.8496 76.0393 27.2556V28.2858C76.0456 28.4671 76.0597 28.6854 76.0801 28.9373C76.1011 29.1886 76.1294 29.383 76.1657 29.5167C76.1991 29.6923 76.2558 29.8737 76.3328 30.0625C76.4093 30.2501 76.4926 30.3962 76.5832 30.4928C76.6943 30.6117 76.8314 30.7095 76.9917 30.7828C77.1526 30.8539 77.3305 30.892 77.5276 30.892ZM80.3116 30.797C80.3751 30.797 80.519 30.7908 80.7416 30.776C80.847 30.776 80.919 30.7737 80.9558 30.7714C80.9949 30.7669 81.0175 30.7657 81.0255 30.7657L81.2861 30.5872V30.5247C81.2861 30.2791 81.1405 30.1568 80.847 30.1568C80.7479 30.1568 80.6793 30.1597 80.6368 30.1682V29.7679C80.6368 29.4314 80.6198 29.1016 80.5858 28.7804C80.5445 28.2897 80.5139 27.9185 80.502 27.6666C80.4187 26.3004 80.3757 25.2765 80.3757 24.5982C80.3757 24.5129 80.3915 24.4555 80.4232 24.4219C80.4544 24.3912 80.5048 24.3753 80.5745 24.3753H80.6578C80.6855 24.3844 80.7207 24.3855 80.7626 24.3855C80.8334 24.3855 80.8918 24.3577 80.9348 24.3025C80.9818 24.2468 81.0039 24.1803 81.0039 24.1047C81.0039 24.0251 80.9745 23.9574 80.915 23.8994C80.8567 23.8392 80.7841 23.8102 80.7009 23.8102C80.485 23.8102 80.2351 23.838 79.957 23.8938C79.7961 23.921 79.6635 23.9665 79.5587 24.0296C79.4539 24.0927 79.4029 24.1667 79.4029 24.2502C79.4029 24.4197 79.4862 24.5027 79.6522 24.5027C79.7032 24.5027 79.7819 24.489 79.8947 24.4612C79.9162 24.6141 79.9252 24.8068 79.9252 25.0382L79.9162 25.5732C79.9071 25.737 79.9043 25.9149 79.9043 26.1111C79.9043 26.6569 79.9371 27.4676 79.9995 28.5382C80.0272 28.9731 80.0516 29.275 80.0726 29.4427C80.0867 29.6952 80.0946 29.8805 80.0946 29.9993C80.0946 30.0909 80.0828 30.1534 80.0612 30.1892C80.0408 30.2245 80.0034 30.241 79.9457 30.241L79.842 30.2307H79.7264C79.51 30.2307 79.4029 30.3143 79.4029 30.482C79.4018 30.693 79.7049 30.797 80.3116 30.797ZM82.9319 30.776C83.0214 30.776 83.1024 30.7436 83.1766 30.6822C83.2514 30.6196 83.2871 30.5451 83.2871 30.4604C83.2871 29.7532 83.2299 28.7588 83.1183 27.4767C83.0016 26.1099 82.941 25.1138 82.941 24.4907L82.9529 24.4384L82.9619 24.3838L83.1721 24.427C83.2905 24.4487 83.3795 24.4595 83.4446 24.4595C83.5347 24.4595 83.614 24.4339 83.6854 24.3793C83.7545 24.3258 83.7896 24.2588 83.7896 24.1758C83.7896 24.0075 83.6814 23.9245 83.4661 23.9245H83.2973C83.0882 23.9245 82.8514 23.9051 82.5857 23.8699C82.3059 23.8414 82.0707 23.8295 81.8742 23.8295C81.7977 23.8295 81.7217 23.8511 81.6492 23.8977C81.5744 23.9432 81.5393 23.9932 81.5393 24.0495C81.5393 24.1183 81.5779 24.1814 81.6543 24.2383C81.7654 24.3094 82.0243 24.3509 82.4288 24.3651C82.4435 24.779 82.4911 25.7137 82.5755 27.1708C82.66 28.6292 82.7109 29.3967 82.7313 29.4734L82.7217 29.8305C82.7217 29.9783 82.7251 30.1102 82.7313 30.2296L82.7438 30.6401L82.9319 30.776ZM86.9005 30.9016C87.0116 30.8613 87.0699 30.7623 87.0699 30.6083V30.5975C87.0699 30.4991 87.0354 30.2819 86.9736 29.9465C86.9039 29.5746 86.8677 29.3631 86.8677 29.3137C86.8677 29.2648 86.8512 29.1596 86.8167 28.9998C86.7798 28.8242 86.764 28.7156 86.764 28.6746C86.764 28.2397 86.6943 27.4813 86.5549 26.4039C86.4076 25.3526 86.3334 24.5607 86.3334 24.0279C86.3334 23.9438 86.2983 23.8778 86.2297 23.8335C86.1606 23.788 86.0768 23.7647 85.9771 23.7647H85.6218C85.5663 23.8414 85.5266 23.9569 85.5012 24.1121C85.4757 24.2661 85.4547 24.4731 85.4343 24.7318C85.4247 24.8586 85.419 24.9541 85.4122 25.0223C85.4037 25.0866 85.4014 25.1337 85.4014 25.1639C85.1635 26.9144 84.8151 28.69 84.3545 30.4911L84.3426 30.5338L84.3216 30.5867C84.3216 30.664 84.3573 30.7282 84.4276 30.7811C84.4967 30.8328 84.5743 30.8607 84.6576 30.8607C84.7482 30.8607 84.8179 30.8283 84.8672 30.7657C84.9578 30.6543 85.0247 30.4252 85.0666 30.0835C85.1425 29.5928 85.2015 29.2654 85.2445 29.105L86.2813 29.2625L86.3221 29.4825C86.3929 29.9874 86.428 30.3445 86.428 30.556C86.428 30.6873 86.4671 30.78 86.5436 30.8283C86.6206 30.8777 86.739 30.9016 86.9005 30.9016ZM86.2093 28.8839C85.6983 28.8429 85.3924 28.7855 85.287 28.7161C85.3975 27.8747 85.606 26.6319 85.9062 24.9854L86.0105 26.0764C86.1215 27.06 86.1776 27.8639 86.1776 28.4944C86.177 28.6502 86.1884 28.7798 86.2093 28.8839ZM89.5814 30.9761C89.672 30.9619 89.7485 30.9318 89.8114 30.8817C89.8749 30.8323 89.9054 30.7731 89.9054 30.7038C89.9054 30.4923 89.7174 30.3877 89.34 30.3877C89.2415 30.3877 89.1616 30.3911 89.0993 30.3979C89.0426 30.3979 89.0001 30.4007 88.969 30.4019C88.9372 30.4076 88.9129 30.4087 88.9004 30.4087C88.6698 30.4087 88.5554 30.1682 88.5554 29.6838C88.5554 29.3688 88.5627 29.0885 88.5758 28.8435L88.5973 28.0117V27.8855C88.5973 27.6962 88.6126 27.5501 88.6494 27.4443C88.6494 26.9764 88.6455 26.5557 88.6381 26.1833C88.6319 25.8046 88.6273 25.3816 88.6273 24.9103C88.6273 24.8205 88.6381 24.6863 88.6591 24.5123C88.68 24.331 88.6908 24.1974 88.6908 24.1138C88.6908 24.0438 88.6636 23.983 88.6126 23.9296C88.5605 23.8773 88.4993 23.8505 88.4296 23.8505C88.1854 23.8505 88.0636 24.1826 88.0636 24.8495C88.0636 25.0667 88.084 25.3953 88.1254 25.837V25.9109C88.1254 26.4283 88.105 27.2101 88.0636 28.2545C88.0149 29.2347 87.9894 30.021 87.9894 30.6094C87.9894 30.6935 88.0194 30.7726 88.0778 30.8442C88.1378 30.9187 88.2081 30.9556 88.2919 30.9556C88.4194 30.9556 88.539 30.9198 88.6494 30.8505C89.0188 30.8499 89.3298 30.892 89.5814 30.9761ZM93.4679 30.8817C93.6696 30.8817 93.7715 30.7089 93.7715 30.3655C93.7715 30.1091 93.7568 29.7918 93.729 29.4206C93.7013 29.0567 93.6877 28.74 93.6877 28.4745C93.6877 28.2494 93.6701 27.848 93.6339 27.2652C93.6061 26.7962 93.5925 26.3936 93.5925 26.0576C93.5925 25.8046 93.597 25.5772 93.6044 25.3742L93.6135 24.7017C93.6135 24.315 93.5891 23.8847 93.541 23.4094H93.6463C93.7155 23.4094 93.7772 23.4133 93.8361 23.4207L94.0237 23.4304C94.1132 23.4304 94.1896 23.4042 94.248 23.3508C94.308 23.2996 94.3375 23.232 94.3375 23.1456C94.3375 23.0625 94.303 22.9926 94.2321 22.9363C94.1625 22.8795 94.0854 22.8522 94.0027 22.8522C93.9528 22.8522 93.8112 22.859 93.5721 22.8732C92.9852 22.909 92.5705 22.9682 92.3257 23.0523C92.1586 23.1148 92.0753 23.1882 92.0753 23.2729C92.0753 23.3576 92.1099 23.4253 92.1801 23.4776C92.2498 23.5299 92.3308 23.5566 92.4203 23.5566L92.7155 23.5356C92.8549 23.5145 92.9444 23.5043 92.9863 23.5043C93.0583 23.643 93.0917 23.9705 93.0917 24.4828C93.0917 24.6846 93.0894 24.8563 93.0815 24.9984C93.0815 25.1235 93.0804 25.2162 93.0764 25.2753C93.073 25.3344 93.0707 25.3748 93.0707 25.3953C93.0707 25.642 93.0951 26.1867 93.1432 27.0355C93.1931 27.8838 93.2175 28.429 93.2175 28.6763L93.1965 29.2318L93.1767 29.507C93.1483 29.8413 93.1336 30.1256 93.1336 30.3564C93.1336 30.5059 93.1642 30.6287 93.222 30.7299C93.2792 30.8306 93.3631 30.8817 93.4679 30.8817ZM95.9176 30.9443H96.8071C96.9351 30.9443 97.0393 30.9175 97.1272 30.8652C97.2138 30.8118 97.2569 30.7379 97.2569 30.6395C97.2569 30.4712 97.126 30.3877 96.8592 30.3877C96.6915 30.3877 96.5504 30.3911 96.4303 30.3979L96.0853 30.4087C96.07 30.4087 96.0643 30.2131 96.0643 29.8186C96.0643 29.6105 96.0745 29.2926 96.0961 28.864C96.1029 28.5837 96.1057 28.2693 96.1057 27.9185C96.1057 27.5677 96.1006 27.3005 96.0859 27.1202H96.3476C96.4167 27.1322 96.5153 27.1407 96.6416 27.1407C96.7379 27.1407 96.8184 27.1129 96.8819 27.0623C96.9447 27.0094 96.977 26.944 96.977 26.8684C96.977 26.6705 96.8076 26.5722 96.4722 26.5722C96.3895 26.5722 96.3187 26.5773 96.2649 26.583L96.0966 26.5938L96.0649 26.4255C96.0649 26.2572 96.0751 26.0048 96.0966 25.6693C96.1034 25.4453 96.1063 25.1917 96.1063 24.9103C96.1063 24.7164 96.1034 24.5646 96.0966 24.4606C96.334 24.4947 96.5991 24.5646 96.8909 24.6704C96.9765 24.6351 97.0478 24.5874 97.1068 24.5288C97.1657 24.4691 97.1963 24.4043 97.1963 24.3338C97.1963 24.2059 97.0433 24.0984 96.7396 24.0086C96.436 23.9171 96.168 23.871 95.938 23.871C95.6445 23.871 95.4995 24.1195 95.4995 24.6175C95.4995 24.7079 95.5086 24.8563 95.5301 25.0598C95.5505 25.2554 95.5624 25.4032 95.5624 25.4999C95.5624 25.9144 95.5488 26.4255 95.521 27.035C95.5001 27.7149 95.4887 28.2261 95.4887 28.5695L95.5085 29.2409C95.5301 29.5428 95.5414 29.7679 95.5414 29.9163C95.5414 29.9982 95.5448 30.0727 95.551 30.1347V30.6196C95.5607 30.7089 95.5998 30.7868 95.6734 30.8499C95.7454 30.913 95.8264 30.9443 95.9176 30.9443ZM99.8137 30.9551C100.197 30.9551 100.391 30.8181 100.391 30.5451C100.391 30.4684 100.36 30.411 100.301 30.3717C100.242 30.3337 100.167 30.3126 100.077 30.3126C100 30.37 99.9219 30.3968 99.846 30.3968C99.7202 30.3968 99.6052 30.3752 99.5015 30.3348C99.2987 30.2489 99.1548 30.1131 99.0715 29.9254C98.9882 29.756 98.9282 29.5451 98.8936 29.2938C98.8727 29.1255 98.8619 28.9083 98.8619 28.6428C98.8619 28.263 98.8681 27.9236 98.8829 27.6223L98.9038 26.6131V26.5602C98.9038 26.2384 98.9492 25.8177 99.0387 25.2992C99.0812 25.0178 99.1543 24.7915 99.2591 24.6158C99.3656 24.4407 99.4862 24.3543 99.625 24.3543H100.119C100.18 24.3457 100.235 24.3145 100.279 24.2588C100.326 24.2036 100.348 24.1394 100.348 24.0694C100.348 23.9927 100.321 23.9284 100.265 23.8807C100.208 23.8301 100.13 23.8079 100.024 23.8079C99.7655 23.8079 99.5497 23.8454 99.3746 23.9239C99.1797 24.0006 99.0205 24.095 98.8976 24.2047C98.7752 24.319 98.6733 24.4765 98.5877 24.6795C98.4908 24.8972 98.4211 25.0922 98.3804 25.2628C98.339 25.4345 98.3061 25.6574 98.2852 25.9303C98.2642 26.1895 98.25 26.43 98.2438 26.6501C98.237 26.8718 98.2331 27.1202 98.2331 27.4034V28.2624C98.2331 29.6082 98.4676 30.4309 98.935 30.7328C99.0245 30.7902 99.1565 30.8402 99.3265 30.8857C99.4981 30.9318 99.659 30.9551 99.8137 30.9551ZM103.175 30.8078C103.274 30.8078 103.357 30.78 103.432 30.7231C103.505 30.6674 103.542 30.5901 103.542 30.4923L103.448 27.8343C103.378 26.1725 103.343 24.8455 103.343 23.85L103.249 23.809C103.156 23.7727 103.087 23.7556 103.04 23.7556C102.956 23.7556 102.884 23.7823 102.824 23.8346C102.766 23.8875 102.735 23.9517 102.735 24.0291C102.735 24.414 102.76 24.916 102.81 25.5329C102.85 26.1912 102.871 26.6881 102.871 27.0253C102.871 27.0662 102.865 27.1089 102.85 27.1526H102.463C102.191 27.1526 102.002 27.1327 101.897 27.0986C101.897 26.6142 101.904 26.1759 101.918 25.7847L101.939 24.4822C101.939 24.0609 101.827 23.8505 101.603 23.8505C101.52 23.8505 101.45 23.8824 101.394 23.9449C101.337 24.0086 101.312 24.0819 101.312 24.1667C101.312 24.4316 101.321 24.8273 101.341 25.3543C101.362 25.8797 101.375 26.2754 101.375 26.542L101.341 27.1526V27.2027C101.348 27.2385 101.353 27.3118 101.353 27.4244V27.7513C101.353 28.018 101.348 28.2704 101.341 28.5075L101.321 29.3592C101.321 29.7867 101.348 30.1318 101.405 30.399C101.462 30.6583 101.555 30.7885 101.686 30.7885C101.778 30.7885 101.852 30.7504 101.908 30.6731C101.963 30.5963 101.991 30.5065 101.991 30.3996C101.991 30.2114 101.981 29.9237 101.96 29.5377C101.939 29.1465 101.928 28.8588 101.928 28.6769V27.4682C102.11 27.4949 102.221 27.5137 102.263 27.5199C102.395 27.5489 102.508 27.5614 102.599 27.5614C102.689 27.5614 102.752 27.5535 102.787 27.541V27.5518C102.787 27.5643 102.798 27.583 102.819 27.6041C102.84 27.6251 102.85 27.6416 102.85 27.6581C102.85 27.7354 102.846 27.8014 102.84 27.8559V27.9935L102.828 28.4774L102.818 29.0755C102.819 30.229 102.937 30.8078 103.175 30.8078ZM107.657 30.8391C107.708 30.8391 107.833 30.8124 108.035 30.7561C108.133 30.5946 108.217 29.8828 108.286 28.6212C108.357 27.3596 108.399 26.1907 108.413 25.1116V24.3213C108.413 24.2042 108.385 24.1058 108.333 24.0279C108.281 23.9506 108.207 23.9131 108.108 23.9131C107.941 23.9131 107.859 24.0177 107.859 24.2281C107.859 24.277 107.861 24.3213 107.868 24.3645V24.501C107.868 26.554 107.799 28.3324 107.658 29.8396C107.575 29.5957 107.453 29.188 107.292 28.6206L107.186 28.2425C106.929 27.3249 106.721 26.6171 106.563 26.119C106.407 25.6221 106.23 25.1491 106.034 24.7011C105.788 24.1399 105.587 23.8602 105.427 23.8602C105.413 23.8602 105.385 23.867 105.343 23.8812V23.8187C105.092 24.008 104.966 24.2667 104.966 24.597C104.966 24.8057 104.956 25.132 104.935 25.5721C104.914 26.0002 104.904 26.3266 104.904 26.5511C104.904 27.2175 104.906 27.819 104.914 28.3585L104.925 30.1568C104.925 30.5838 105.036 30.7976 105.26 30.7976C105.351 30.7976 105.428 30.7663 105.492 30.7038C105.554 30.6401 105.584 30.5616 105.584 30.4718C105.584 30.4366 105.574 30.4019 105.554 30.3655C105.533 30.3319 105.518 30.3081 105.512 30.2927L105.47 30.2188V24.9325C105.741 25.5772 106.117 26.5722 106.594 27.9179C107.073 29.2631 107.313 30.0517 107.313 30.2825V30.3354L107.375 30.5349C107.396 30.6469 107.429 30.7259 107.469 30.772C107.512 30.8169 107.574 30.8391 107.657 30.8391ZM111.041 31.0079C111.977 31.0079 112.445 29.9982 112.445 27.981L112.433 27.3818C112.428 27.2067 112.424 27.0111 112.424 26.7928V26.7098C112.424 26.3794 112.402 26.0679 112.361 25.7739C112.32 25.4862 112.248 25.2156 112.152 24.9592C112.054 24.7028 111.936 24.4879 111.795 24.3116C111.641 24.1308 111.453 23.9881 111.231 23.8869C111.007 23.7846 110.755 23.7329 110.475 23.7329C110.377 23.7329 110.291 23.7709 110.214 23.8454C110.136 23.9182 110.072 24.024 110.026 24.1655C109.899 24.4816 109.818 24.8057 109.785 25.1428C109.735 25.6324 109.708 25.9888 109.701 26.2163L109.689 26.9514V27.1401C109.698 27.1401 109.701 27.1561 109.701 27.1913V27.3818C109.694 27.4375 109.689 27.508 109.689 27.5916C109.689 28.0322 109.722 28.4933 109.785 28.968C109.832 29.4734 109.959 29.9379 110.16 30.3655C110.259 30.5616 110.385 30.7186 110.539 30.8334C110.691 30.9494 110.86 31.0079 111.041 31.0079ZM111 30.5662C110.783 30.5662 110.618 30.3081 110.508 29.7878C110.394 29.2921 110.326 28.7798 110.298 28.2539C110.277 27.8832 110.265 27.5074 110.265 27.1299C110.265 26.9531 110.274 26.7922 110.287 26.6444L110.308 26.1617V25.878C110.301 25.7881 110.297 25.6744 110.297 25.5414C110.297 25.1997 110.332 24.9183 110.403 24.7005C110.48 24.427 110.637 24.2895 110.875 24.2895C111.111 24.2895 111.312 24.3884 111.476 24.5851C111.64 24.7818 111.728 25.0126 111.744 25.2799V25.4669C111.744 25.7353 111.764 26.1367 111.807 26.6756C111.854 27.1896 111.878 27.6012 111.878 27.9173C111.878 28.176 111.862 28.4842 111.828 28.8424C111.799 29.2546 111.719 29.6406 111.586 29.9971C111.531 30.1733 111.45 30.312 111.344 30.4121C111.24 30.5156 111.125 30.5662 111 30.5662ZM115.2 30.9761C115.29 30.9619 115.366 30.9318 115.43 30.8817C115.492 30.8323 115.524 30.7731 115.524 30.7038C115.524 30.4923 115.336 30.3877 114.958 30.3877C114.86 30.3877 114.781 30.3911 114.718 30.3979C114.661 30.3979 114.617 30.4007 114.587 30.4019C114.556 30.4076 114.532 30.4087 114.518 30.4087C114.288 30.4087 114.174 30.1682 114.174 29.6838C114.174 29.3688 114.18 29.0885 114.194 28.8435L114.215 28.0117V27.8855C114.215 27.6962 114.231 27.5501 114.267 27.4443C114.267 26.9764 114.264 26.5557 114.257 26.1833C114.25 25.8046 114.246 25.3816 114.246 24.9103C114.246 24.8205 114.257 24.6863 114.278 24.5123C114.298 24.331 114.309 24.1974 114.309 24.1138C114.309 24.0438 114.282 23.983 114.231 23.9296C114.178 23.8773 114.117 23.8505 114.048 23.8505C113.802 23.8505 113.682 24.1826 113.682 24.8495C113.682 25.0667 113.702 25.3953 113.744 25.837V25.9109C113.744 26.4283 113.723 27.2101 113.682 28.2545C113.631 29.2347 113.607 30.021 113.607 30.6094C113.607 30.6935 113.637 30.7726 113.696 30.8442C113.755 30.9187 113.827 30.9556 113.91 30.9556C114.038 30.9556 114.156 30.9198 114.267 30.8505C114.637 30.8499 114.948 30.892 115.2 30.9761ZM117.618 31.0079C118.553 31.0079 119.023 29.9982 119.023 27.981L119.011 27.3818C119.004 27.2067 119.001 27.0111 119.001 26.7928V26.7098C119.001 26.3794 118.979 26.0679 118.938 25.7739C118.895 25.4862 118.825 25.2156 118.728 24.9592C118.629 24.7028 118.511 24.4879 118.372 24.3116C118.218 24.1308 118.03 23.9881 117.807 23.8869C117.583 23.7846 117.331 23.7329 117.051 23.7329C116.953 23.7329 116.868 23.7709 116.79 23.8454C116.713 23.9182 116.651 24.024 116.602 24.1655C116.475 24.4816 116.397 24.8057 116.361 25.1428C116.312 25.6324 116.283 25.9888 116.276 26.2163L116.267 26.9514V27.1401C116.272 27.1401 116.276 27.1561 116.276 27.1913V27.3818C116.27 27.4375 116.267 27.508 116.267 27.5916C116.267 28.0322 116.297 28.4933 116.361 28.968C116.411 29.4734 116.535 29.9379 116.738 30.3655C116.835 30.5616 116.962 30.7186 117.115 30.8334C117.269 30.9494 117.436 31.0079 117.618 31.0079ZM117.576 30.5662C117.358 30.5662 117.196 30.3081 117.085 29.7878C116.973 29.2921 116.903 28.7798 116.875 28.2539C116.854 27.8832 116.843 27.5074 116.843 27.1299C116.843 26.9531 116.85 26.7922 116.864 26.6444L116.885 26.1617V25.878C116.877 25.7881 116.874 25.6744 116.874 25.5414C116.874 25.1997 116.91 24.9183 116.98 24.7005C117.056 24.427 117.213 24.2895 117.451 24.2895C117.689 24.2895 117.89 24.3884 118.052 24.5851C118.217 24.7818 118.306 25.0126 118.32 25.2799V25.4669C118.32 25.7353 118.341 26.1367 118.383 26.6756C118.431 27.1896 118.457 27.6012 118.457 27.9173C118.457 28.176 118.439 28.4842 118.405 28.8424C118.376 29.2546 118.296 29.6406 118.163 29.9971C118.106 30.1733 118.026 30.312 117.923 30.4121C117.818 30.5156 117.703 30.5662 117.576 30.5662ZM121.525 30.892C121.86 30.892 122.145 30.7959 122.378 30.6037C122.612 30.4104 122.731 30.1455 122.731 29.8083L122.709 29.2517C122.688 29.0004 122.677 28.8139 122.677 28.6951C122.677 28.6098 122.698 28.4842 122.74 28.3165C122.775 28.1266 122.793 28.0003 122.793 27.9367C122.793 27.7206 122.478 27.6115 121.85 27.6115H121.704V27.6012C121.598 27.6012 121.512 27.628 121.447 27.6808C121.381 27.7331 121.346 27.8093 121.346 27.9065C121.346 28.0657 121.468 28.1493 121.713 28.1493H121.922C122.034 28.1493 122.114 28.1595 122.164 28.1806V28.6638C122.164 29.785 121.996 30.3445 121.66 30.3445C121.535 30.3445 121.412 30.3081 121.294 30.229C121.189 30.1591 121.105 30.0744 121.039 29.9721C120.971 29.8703 120.913 29.735 120.864 29.5661C120.773 29.279 120.715 28.9424 120.687 28.5575C120.666 28.1459 120.655 27.819 120.655 27.5808C120.655 27.3494 120.669 26.9963 120.696 26.5187C120.738 26.0087 120.817 25.5357 120.927 25.1019C120.99 24.8768 121.068 24.7017 121.158 24.576C121.248 24.4492 121.354 24.3844 121.472 24.3844C121.514 24.3844 121.549 24.3895 121.577 24.3958C121.613 24.4043 121.651 24.4077 121.692 24.4077C121.782 24.4077 121.862 24.3804 121.929 24.327C121.993 24.2758 122.028 24.2059 122.028 24.1234C122.028 23.9472 121.877 23.8608 121.577 23.8608C121.41 23.8608 121.262 23.8852 121.137 23.9353C120.872 24.0245 120.666 24.19 120.519 24.4282C120.366 24.667 120.257 24.9439 120.195 25.2588C120.119 25.6085 120.072 25.9411 120.059 26.2572C120.045 26.5164 120.038 26.8496 120.038 27.2556V28.2858C120.045 28.4671 120.059 28.6854 120.079 28.9373C120.1 29.1886 120.129 29.383 120.165 29.5167C120.197 29.6923 120.255 29.8737 120.331 30.0625C120.407 30.2501 120.492 30.3962 120.581 30.4928C120.692 30.6117 120.83 30.7095 120.991 30.7828C121.152 30.8539 121.33 30.892 121.525 30.892ZM124.311 30.797C124.373 30.797 124.518 30.7908 124.74 30.776C124.846 30.776 124.917 30.7737 124.954 30.7714C124.994 30.7669 125.016 30.7657 125.023 30.7657L125.285 30.5872V30.5247C125.285 30.2791 125.14 30.1568 124.846 30.1568C124.747 30.1568 124.677 30.1597 124.636 30.1682V29.7679C124.636 29.4314 124.617 29.1016 124.583 28.7804C124.543 28.2897 124.513 27.9185 124.501 27.6666C124.416 26.3004 124.373 25.2765 124.373 24.5982C124.373 24.5129 124.39 24.4555 124.422 24.4219C124.452 24.3912 124.503 24.3753 124.573 24.3753H124.657C124.684 24.3844 124.72 24.3855 124.762 24.3855C124.833 24.3855 124.891 24.3577 124.935 24.3025C124.98 24.2468 125.002 24.1803 125.002 24.1047C125.002 24.0251 124.973 23.9574 124.914 23.8994C124.855 23.8392 124.783 23.8102 124.698 23.8102C124.483 23.8102 124.234 23.838 123.956 23.8938C123.794 23.921 123.662 23.9665 123.557 24.0296C123.452 24.0927 123.401 24.1667 123.401 24.2502C123.401 24.4197 123.485 24.5027 123.652 24.5027C123.701 24.5027 123.781 24.489 123.894 24.4612C123.915 24.6141 123.925 24.8068 123.925 25.0382L123.915 25.5732C123.905 25.737 123.903 25.9149 123.903 26.1111C123.903 26.6569 123.936 27.4676 123.998 28.5382C124.026 28.9731 124.049 29.275 124.071 29.4427C124.085 29.6952 124.091 29.8805 124.091 29.9993C124.091 30.0909 124.08 30.1534 124.06 30.1892C124.039 30.2245 124 30.241 123.945 30.241L123.839 30.2307H123.725C123.508 30.2307 123.401 30.3143 123.401 30.482C123.4 30.693 123.704 30.797 124.311 30.797ZM126.636 30.9443H127.527C127.651 30.9443 127.757 30.9175 127.846 30.8652C127.933 30.8118 127.975 30.7379 127.975 30.6395C127.975 30.4712 127.844 30.3877 127.578 30.3877C127.411 30.3877 127.268 30.3911 127.149 30.3979L126.803 30.4087C126.79 30.4087 126.783 30.2131 126.783 29.8186C126.783 29.6105 126.792 29.2926 126.813 28.864C126.822 28.5837 126.825 28.2693 126.825 27.9185C126.825 27.5677 126.817 27.3005 126.804 27.1202H127.066C127.136 27.1322 127.234 27.1407 127.359 27.1407C127.458 27.1407 127.538 27.1129 127.6 27.0623C127.664 27.0094 127.694 26.944 127.694 26.8684C127.694 26.6705 127.528 26.5722 127.193 26.5722C127.109 26.5722 127.038 26.5773 126.982 26.583L126.813 26.5938L126.783 26.4255C126.783 26.2572 126.792 26.0048 126.813 25.6693C126.823 25.4453 126.825 25.1917 126.825 24.9103C126.825 24.7164 126.823 24.5646 126.813 24.4606C127.051 24.4947 127.317 24.5646 127.611 24.6704C127.694 24.6351 127.766 24.5874 127.825 24.5288C127.884 24.4691 127.913 24.4043 127.913 24.3338C127.913 24.2059 127.763 24.0984 127.458 24.0086C127.156 23.9171 126.888 23.871 126.656 23.871C126.364 23.871 126.217 24.1195 126.217 24.6175C126.217 24.7079 126.228 24.8563 126.25 25.0598C126.27 25.2554 126.283 25.4032 126.283 25.4999C126.283 25.9144 126.267 26.4255 126.238 27.035C126.217 27.7149 126.207 28.2261 126.207 28.5695L126.228 29.2409C126.25 29.5428 126.259 29.7679 126.259 29.9163C126.259 29.9982 126.264 30.0727 126.271 30.1347V30.6196C126.278 30.7089 126.317 30.7868 126.391 30.8499C126.464 30.913 126.546 30.9443 126.636 30.9443ZM129.319 30.9551V30.9227C129.534 30.9227 129.732 30.8635 129.908 30.7441C130.088 30.6259 130.225 30.469 130.323 30.2722C130.518 29.8873 130.617 29.4797 130.617 29.0522C130.617 28.7861 130.586 28.5245 130.528 28.2642C130.467 28.006 130.389 27.7769 130.292 27.5813L129.925 26.8888L129.695 26.4681C129.596 26.2998 129.517 26.1122 129.455 25.9047C129.392 25.6977 129.361 25.4936 129.361 25.2912C129.361 25.1298 129.397 24.9257 129.475 24.6812C129.564 24.414 129.689 24.2781 129.841 24.2701C129.911 24.3122 129.984 24.3338 130.062 24.3338C130.13 24.3338 130.19 24.3156 130.239 24.2804C130.287 24.2457 130.313 24.1974 130.313 24.1331C130.313 24.0234 130.26 23.925 130.151 23.8454C130.043 23.7624 129.926 23.7221 129.8 23.7221C129.639 23.7221 129.495 23.7744 129.365 23.8761C129.236 23.9779 129.137 24.1075 129.067 24.269C128.927 24.6067 128.857 24.9279 128.857 25.2367C128.857 25.509 128.9 25.7836 128.983 26.0565C129.046 26.2674 129.123 26.4619 129.213 26.6438C129.304 26.8274 129.415 27.0338 129.548 27.2641L129.664 27.4653C129.958 27.9748 130.104 28.4626 130.104 28.9254C130.104 29.192 130.059 29.4933 129.969 29.8288C129.917 30.0113 129.844 30.158 129.743 30.2705C129.642 30.3825 129.528 30.4383 129.402 30.4383C129.346 30.4383 129.265 30.4263 129.161 30.4064C129.07 30.3791 129.004 30.3638 128.962 30.3638L128.848 30.5434C128.86 30.6549 128.911 30.7464 128.998 30.8158C129.085 30.888 129.192 30.9335 129.319 30.9551Z" fill="black"/>
</svg>
