<svg width="99" height="29" viewBox="0 0 99 29" fill="none" xmlns="http://www.w3.org/2000/svg">
<path d="M21.1706 28.4903C25.3005 28.4903 28.6484 25.1423 28.6484 21.0125C28.6484 16.8826 25.3005 13.5347 21.1706 13.5347C17.0407 13.5347 13.6928 16.8826 13.6928 21.0125C13.6928 25.1423 17.0407 28.4903 21.1706 28.4903Z" fill="#97CF26"/>
<path d="M21.1706 11.7698C23.8288 11.7698 25.9837 9.61486 25.9837 6.95666C25.9837 4.29845 23.8288 2.14355 21.1706 2.14355C18.5124 2.14355 16.3575 4.29845 16.3575 6.95666C16.3575 9.61486 18.5124 11.7698 21.1706 11.7698Z" fill="#FF6163"/>
<path d="M7.11436 24.4937C9.03673 24.4937 10.5951 22.9353 10.5951 21.013C10.5951 19.0906 9.03673 17.5322 7.11436 17.5322C5.19199 17.5322 3.63361 19.0906 3.63361 21.013C3.63361 22.9353 5.19199 24.4937 7.11436 24.4937Z" fill="#A169F7"/>
<path d="M7.11436 13.1022C10.5084 13.1022 13.2598 10.3508 13.2598 6.95673C13.2598 3.56269 10.5084 0.811279 7.11436 0.811279C3.72032 0.811279 0.96891 3.56269 0.96891 6.95673C0.96891 10.3508 3.72032 13.1022 7.11436 13.1022Z" fill="#00AAFF"/>
<path d="M48.0893 24.4527H51.9711L44.7821 4.87784H41.9665L34.7762 24.4533H38.6583L40.0313 20.7168H46.7163L48.0893 24.4527L44.6009 21.1118L41.1125 17.771L43.3742 11.6155L45.6345 17.771H41.1125L44.6009 21.1118L48.0893 24.4527ZM61.594 11.0886L58.0216 20.8127L54.451 11.0886H50.8037L55.714 24.4527H60.3299L65.2396 11.0886H61.594ZM66.7662 11.0886H70.4135V24.4527H66.7662V11.0886Z" fill="black"/>
<path d="M68.6022 9.57103C69.8991 9.57103 70.9504 8.51968 70.9504 7.22277C70.9504 5.92586 69.8991 4.87451 68.6022 4.87451C67.3052 4.87451 66.2539 5.92586 66.2539 7.22277C66.2539 8.51968 67.3052 9.57103 68.6022 9.57103Z" fill="black"/>
<path d="M83.2913 14.0337V11.0886H78.9222V7.40196H75.2772V11.0886H72.3927V14.0337H75.2772V19.7835C75.2772 22.7493 76.7601 24.7288 80.5466 24.7288C82.0089 24.7288 83.2913 24.1919 83.2913 24.1919L82.8483 21.3063C82.8483 21.3063 82.1305 21.5208 81.2478 21.5208C80.1659 21.5208 78.9222 21.0545 78.9222 19.559V14.0334L83.2913 14.0337ZM91.6551 21.3979C89.6216 21.3979 87.9738 19.7858 87.9738 17.7973C87.9738 15.8104 89.6216 14.1979 91.6544 14.1979C93.6886 14.1979 95.3357 15.8107 95.3357 17.7976C95.3357 19.7861 93.6886 21.3979 91.6551 21.3979ZM91.6551 10.7475C87.702 10.7475 84.496 13.8835 84.496 17.749C84.496 21.6161 87.702 24.7505 91.6547 24.7505C95.6058 24.7505 98.8118 21.6161 98.8118 17.749C98.8118 13.8835 95.6065 10.7475 91.6551 10.7475Z" fill="black"/>
</svg>
