<svg width="104" height="78" viewBox="0 0 104 78" fill="none" xmlns="http://www.w3.org/2000/svg">
<path d="M71.818 1.40632C88.7262 -1.36447 103 10.3053 103 28.1843C103 39.6714 87.5806 63.2697 78.1876 76.1771C77.3892 77.2741 75.7586 77.2745 74.9602 76.1775C72.8272 73.2466 70.3836 69.7642 67.88 65.9985M47.244 1.40632C64.1138 -1.35804 78.426 10.2682 78.426 28.1843C78.426 40.0907 62.0002 64.641 53.6148 76.1747C52.8164 77.2728 51.185 77.2751 50.386 76.1775C48.2524 73.2466 45.808 69.7642 43.306 65.9985M27.426 1.02492C12.114 1.02492 1 12.4467 1 28.1843C1 39.677 16.4172 63.2713 25.8116 76.1769C26.6112 77.2753 28.242 77.2732 29.0408 76.1744C37.425 64.6416 53.85 40.0879 53.85 28.1843C53.85 12.4596 42.7514 1.02492 27.426 1.02492ZM27.426 39.9174C20.3766 39.9174 14.636 34.1587 14.636 27.0759C14.636 19.9878 20.379 14.2322 27.426 14.2322C34.473 14.2322 40.216 19.9878 40.216 27.0759C40.216 34.1698 34.4652 39.9174 27.426 39.9174Z" stroke="#F6A219" stroke-width="2"/>
</svg>
