<svg width="232" height="96" viewBox="0 0 232 96" fill="none" xmlns="http://www.w3.org/2000/svg">
<ellipse cx="118.053" cy="48" rx="16.4248" ry="16" stroke="#F6A219" stroke-width="2"/>
<ellipse cx="118.053" cy="43" rx="5.13274" ry="5" stroke="#F6A219" stroke-width="2"/>
<path d="M110.867 57V54C110.867 52.4151 112.211 51 113.852 51H122.255C123.896 51 125.239 52.4156 125.239 54V57" stroke="#F6A219" stroke-width="2"/>
<path d="M118.053 2V26M118.053 2L109.841 10M118.053 2L126.265 10M118.053 94V70M118.053 94L109.841 86M118.053 94L126.265 86" stroke="#F6A219" stroke-width="2"/>
<path d="M151.444 15.4733L134.022 32.4438M151.444 15.4733H139.829M151.444 15.4733V26.787M84.6626 80.5271L102.084 63.5565M84.6626 80.5271V69.2134M84.6626 80.5271H96.2767" stroke="#F6A219" stroke-width="2"/>
<path d="M165.274 48L140.637 48M165.274 48L157.062 40M165.274 48L157.062 56M70.8319 48L95.469 48M70.8319 48L79.0443 40M70.8319 48L79.0443 56" stroke="#F6A219" stroke-width="2"/>
<path d="M151.444 80.527L134.022 63.5564M151.444 80.527L151.444 69.2133M151.444 80.527L139.829 80.527M84.6626 15.4731L102.084 32.4437M84.6626 15.4731L96.2767 15.4731M84.6626 15.4731L84.6626 26.7868" stroke="#F6A219" stroke-width="2"/>
</svg>
