<svg width="123" height="81" viewBox="0 0 123 81" fill="none" xmlns="http://www.w3.org/2000/svg">
<path d="M33.3408 7.04991L34.6489 7.51884C36.8208 8.30863 39.2642 8.16055 41.3374 7.14863L42.8676 6.4082C45.6319 5.07543 48.8651 4.87799 51.7527 5.86522L82.2336 16.3793C82.826 16.5767 83.2455 17.1691 83.2209 17.8108C83.1962 18.0329 83.0234 23.2159 79.3706 25.7333C77.1 27.2882 74.163 27.461 70.5842 26.227L59.2063 22.3274C58.2438 24.8942 55.7017 30.0772 50.4199 32.9155C48.0012 34.2236 45.3357 34.8653 42.4233 34.8653C39.8812 34.8653 37.1416 34.3717 34.254 33.3844M33.3408 7.04991L32.0327 6.58097C31.9093 6.50693 31.7859 6.43288 31.6625 6.38352L16.0641 1.07713C15.6939 0.953723 15.2743 0.978405 14.9288 1.15117C14.5833 1.32394 14.3118 1.62011 14.1884 1.99032L1.08283 40.221C0.811336 40.9861 1.23091 41.8253 1.99602 42.0968L17.619 47.4525C17.7918 47.5266 17.9399 47.5513 18.1126 47.5513C18.3348 47.5513 18.5569 47.5019 18.7544 47.4032C19.0999 47.2304 19.3714 46.9342 19.4948 46.564L33.3408 7.04991ZM106.051 47.403L86.0592 10.6285C85.7136 9.88806 86.0098 9.02423 86.7502 8.65402L101.583 1.39783C101.929 1.22507 102.349 1.20039 102.719 1.32379C103.089 1.44719 103.385 1.71868 103.558 2.06422L121.378 38.2711C121.723 39.0115 121.427 39.8754 120.686 40.2456L106.051 47.403ZM106.051 47.403L99.609 53.3265C94.4754 58.0405 88.7247 61.9894 82.4558 65.0499L54.048 78.9452C53.1842 79.3648 52.2463 79.5869 51.3085 79.5869C50.6174 79.5869 49.9263 79.4635 49.2599 79.2414C47.6804 78.6984 46.397 77.5631 45.6565 76.0576C45.1136 74.9963 44.9161 73.8363 45.0395 72.6763M68.3876 61.249L45.0395 72.6763M45.0395 72.6763L42.3493 74.009C41.4608 74.4533 40.5229 74.6507 39.6097 74.6507C37.2897 74.6507 35.0684 73.3673 33.9825 71.1461C33.3901 69.912 33.242 68.6039 33.4395 67.3699M56.2446 56.2141L33.4395 67.3699M33.4395 67.3699C33.168 67.3946 32.8965 67.4192 32.625 67.4192C30.305 67.4192 28.0837 66.1358 26.9978 63.9146C25.7884 61.4465 26.3561 58.5588 28.2318 56.7077M48.6429 46.712L28.2318 56.7077M28.2318 56.7077C27.0965 56.0907 26.1586 55.1528 25.591 53.9682C24.8505 52.4626 24.7518 50.7596 25.2948 49.1801C25.8378 47.6005 26.9731 46.3171 28.4786 45.5766L39.3135 40.2703" stroke="#F6A219" stroke-width="2"/>
</svg>
