<svg width="99" height="98" viewBox="0 0 99 98" fill="none" xmlns="http://www.w3.org/2000/svg">
<path d="M67 30V28.7021C67 26.1152 69.1354 24 71.7434 24H93.2568C95.8664 24 98.0001 26.1159 98.0001 28.7021V48.3343C98.0001 50.9204 95.5576 53.0363 92.9479 53.0363H92.0001V72.2979C92.0001 74.8841 89.8656 77 87.2568 77H77.7434C75.1338 77 73.0001 74.8841 73.0001 72.2979V71M26 71V72.2979C26 74.8841 23.8663 77 21.2567 77H11.7433C9.13449 77 7 74.8841 7 72.2979V53.0363H6.05214C3.44252 53.0363 1 50.9204 1 48.3343V28.7021C1 26.1159 3.1337 24 5.74331 24H27.2567C29.8647 24 32 26.1152 32 28.7021V30M92.0001 10.4825C92.0001 15.7196 87.7831 19.9651 82.5001 19.9651C77.2171 19.9651 73.0001 15.7196 73.0001 10.4825C73.0001 5.24547 77.2171 1 82.5001 1C87.7831 1 92.0001 5.24547 92.0001 10.4825ZM32 40.7013C32 38.1159 34.0554 35.9992 36.6539 36H62.2567C64.8655 36 67 38.1159 67 40.7021V65.3393C67 67.9263 65.1788 70 62.57 70H61V92.2979C61 94.8841 58.8655 97 56.2567 97H42.7433C40.1345 97 38 94.8841 38 92.2979V70H36.2711C33.6623 70 32 68.0038 32 65.4177V40.7013ZM60.5286 21.2973C60.5286 27.3134 55.6088 32.1905 49.5399 32.1905C43.4711 32.1905 38.5512 27.3134 38.5512 21.2973C38.5512 15.2812 43.4711 10.4042 49.5399 10.4042C55.6088 10.4042 60.5286 15.2812 60.5286 21.2973ZM7 10.4825C7 15.7196 11.217 19.9651 16.5 19.9651C21.783 19.9651 26 15.7196 26 10.4825C26 5.24547 21.783 1 16.5 1C11.217 1 7 5.24547 7 10.4825Z" stroke="#F6A219" stroke-width="2"/>
</svg>
