<svg width="400" height="540" viewBox="0 0 400 540" fill="none" xmlns="http://www.w3.org/2000/svg">
<path fill-rule="evenodd" clip-rule="evenodd" d="M0 103.905L0 246.95C0.187481 246.83 0.374981 246.711 0.5625 246.592C47.1896 217.145 95.5095 190.846 143.803 164.562C181.376 144.112 218.933 123.671 255.665 101.763C260.421 98.8997 265.419 95.9542 270.578 92.9134C310.255 69.5291 359.492 40.5103 381.989 0H0L0 48.9639C20.0814 43.9787 40.3348 39.2591 60.784 34.7184C71.2468 32.4283 87.8596 31.7176 83.3071 45.853C80.9265 53.3988 69.4617 60.1557 61.7729 64.6871C60.691 65.3248 59.6838 65.9184 58.7873 66.4639C38.9079 78.5094 19.3173 91.004 0 103.905ZM400 451.091C266.664 456.405 132.148 468.314 0 490.448L0 540H400V451.091Z" fill="#0C49D2"/>
</svg>
