<svg width="704" height="202" viewBox="0 0 704 202" fill="none" xmlns="http://www.w3.org/2000/svg">
<path fill-rule="evenodd" clip-rule="evenodd" d="M283.584 202H380.57C420.633 170.367 462.349 140.754 505.562 113.289C536.908 93.5091 569.392 75.843 601.858 58.1866C627.117 44.4495 652.365 30.7183 677.059 16.0019C680.256 14.0786 683.616 12.1 687.085 10.0573C692.494 6.87149 698.168 3.53 703.903 0H532.174C441.464 56.6999 359.708 127.127 283.584 202ZM435.499 0H0V202H37.8528C84.1276 176.87 141.288 145.296 193.647 116.374C266.393 76.1908 329.872 41.1269 342.012 35.5761C372.819 21.5595 403.906 9.9706 435.499 0Z" fill="#0C49D2"/>
</svg>
